MFile 1 2 480
MTrk
0 Meta 0x08  47 79 6d 6e 6f 70 e9 64 69 65 20 31 00
0 Meta 0x0a  45 2e 20 53 61 74 69 65 00
0 TimeSig 3/4 24 8
0 KeySig 2 major
0 Tempo 833333
0 PrCh ch=1 p=0
2 Par ch=1 c=7 v=100
4 Par ch=1 c=10 v=64
6 Par ch=1 c=91 v=30
8 Par ch=1 c=93 v=30
480 On ch=1 n=66 v=33
480 On ch=1 n=62 v=33
480 On ch=1 n=59 v=33
1439 On ch=1 n=66 v=0
1439 On ch=1 n=62 v=0
1439 On ch=1 n=59 v=0
1920 On ch=1 n=66 v=33
1920 On ch=1 n=61 v=33
1920 On ch=1 n=57 v=33
2879 On ch=1 n=66 v=0
2879 On ch=1 n=61 v=0
2879 On ch=1 n=57 v=0
3360 On ch=1 n=66 v=33
3360 On ch=1 n=62 v=33
3360 On ch=1 n=59 v=33
4319 On ch=1 n=66 v=0
4319 On ch=1 n=62 v=0
4319 On ch=1 n=59 v=0
4800 On ch=1 n=66 v=33
4800 On ch=1 n=61 v=33
4800 On ch=1 n=57 v=33
5759 On ch=1 n=66 v=0
5759 On ch=1 n=61 v=0
5759 On ch=1 n=57 v=0
6240 On ch=1 n=78 v=33
6240 On ch=1 n=66 v=33
6240 On ch=1 n=62 v=33
6240 On ch=1 n=59 v=33
6719 On ch=1 n=78 v=0
6720 On ch=1 n=81 v=33
7199 On ch=1 n=81 v=0
7199 On ch=1 n=66 v=0
7199 On ch=1 n=62 v=0
7199 On ch=1 n=59 v=0
7200 On ch=1 n=79 v=33
7679 On ch=1 n=79 v=0
7680 On ch=1 n=78 v=33
7680 On ch=1 n=66 v=33
7680 On ch=1 n=61 v=33
7680 On ch=1 n=57 v=33
8159 On ch=1 n=78 v=0
8160 On ch=1 n=73 v=33
8639 On ch=1 n=73 v=0
8639 On ch=1 n=66 v=0
8639 On ch=1 n=61 v=0
8639 On ch=1 n=57 v=0
8640 On ch=1 n=71 v=33
9119 On ch=1 n=71 v=0
9120 On ch=1 n=73 v=33
9120 On ch=1 n=66 v=33
9120 On ch=1 n=62 v=33
9120 On ch=1 n=59 v=33
9599 On ch=1 n=73 v=0
9600 On ch=1 n=74 v=33
10079 On ch=1 n=74 v=0
10079 On ch=1 n=66 v=0
10079 On ch=1 n=62 v=0
10079 On ch=1 n=59 v=0
10080 On ch=1 n=69 v=33
10560 On ch=1 n=66 v=33
10560 On ch=1 n=61 v=33
10560 On ch=1 n=57 v=33
11519 On ch=1 n=69 v=0
11519 On ch=1 n=66 v=0
11519 On ch=1 n=61 v=0
11519 On ch=1 n=57 v=0
11520 On ch=1 n=66 v=33
12000 On ch=1 n=66 v=33
12000 On ch=1 n=62 v=33
12000 On ch=1 n=59 v=33
12959 On ch=1 n=66 v=0
12959 On ch=1 n=62 v=0
12959 On ch=1 n=59 v=0
13440 On ch=1 n=66 v=33
13440 On ch=1 n=61 v=33
13440 On ch=1 n=57 v=33
14399 On ch=1 n=66 v=0
14399 On ch=1 n=61 v=0
14399 On ch=1 n=57 v=0
14880 On ch=1 n=66 v=33
14880 On ch=1 n=62 v=33
14880 On ch=1 n=59 v=33
15839 On ch=1 n=66 v=0
15839 On ch=1 n=62 v=0
15839 On ch=1 n=59 v=0
16320 On ch=1 n=66 v=33
16320 On ch=1 n=61 v=33
16320 On ch=1 n=57 v=33
17279 On ch=1 n=66 v=0
17279 On ch=1 n=61 v=0
17279 On ch=1 n=57 v=0
17279 On ch=1 n=66 v=0
17760 On ch=1 n=78 v=33
17760 On ch=1 n=66 v=33
17760 On ch=1 n=62 v=33
17760 On ch=1 n=59 v=33
18239 On ch=1 n=78 v=0
18240 On ch=1 n=81 v=33
18719 On ch=1 n=81 v=0
18719 On ch=1 n=66 v=0
18719 On ch=1 n=62 v=0
18719 On ch=1 n=59 v=0
18720 On ch=1 n=79 v=33
19199 On ch=1 n=79 v=0
19200 On ch=1 n=78 v=33
19200 On ch=1 n=66 v=33
19200 On ch=1 n=61 v=33
19200 On ch=1 n=57 v=33
19679 On ch=1 n=78 v=0
19680 On ch=1 n=73 v=33
20159 On ch=1 n=73 v=0
20159 On ch=1 n=66 v=0
20159 On ch=1 n=61 v=0
20159 On ch=1 n=57 v=0
20160 On ch=1 n=71 v=33
20639 On ch=1 n=71 v=0
20640 On ch=1 n=73 v=33
20640 On ch=1 n=66 v=33
20640 On ch=1 n=62 v=33
20640 On ch=1 n=59 v=33
21119 On ch=1 n=73 v=0
21120 On ch=1 n=74 v=33
21599 On ch=1 n=74 v=0
21599 On ch=1 n=66 v=0
21599 On ch=1 n=62 v=0
21599 On ch=1 n=59 v=0
21600 On ch=1 n=69 v=33
22080 On ch=1 n=66 v=33
22080 On ch=1 n=61 v=33
22080 On ch=1 n=57 v=33
23039 On ch=1 n=69 v=0
23039 On ch=1 n=66 v=0
23039 On ch=1 n=61 v=0
23039 On ch=1 n=57 v=0
23040 On ch=1 n=73 v=33
23520 On ch=1 n=66 v=33
23520 On ch=1 n=61 v=33
23520 On ch=1 n=57 v=33
24479 On ch=1 n=73 v=0
24479 On ch=1 n=66 v=0
24479 On ch=1 n=61 v=0
24479 On ch=1 n=57 v=0
24480 On ch=1 n=78 v=33
24960 On ch=1 n=66 v=33
24960 On ch=1 n=62 v=33
24960 On ch=1 n=59 v=33
25919 On ch=1 n=78 v=0
25919 On ch=1 n=66 v=0
25919 On ch=1 n=62 v=0
25919 On ch=1 n=59 v=0
25920 On ch=1 n=64 v=33
26400 On ch=1 n=59 v=33
26400 On ch=1 n=55 v=33
27359 On ch=1 n=59 v=0
27359 On ch=1 n=55 v=0
27840 On ch=1 n=67 v=33
27840 On ch=1 n=62 v=33
27840 On ch=1 n=59 v=33
28799 On ch=1 n=67 v=0
28799 On ch=1 n=62 v=0
28799 On ch=1 n=59 v=0
29280 On ch=1 n=62 v=33
29280 On ch=1 n=57 v=33
29280 On ch=1 n=53 v=33
30239 On ch=1 n=62 v=0
30239 On ch=1 n=57 v=0
30239 On ch=1 n=53 v=0
30239 On ch=1 n=64 v=0
30240 On ch=1 n=69 v=49
30719 On ch=1 n=69 v=0
30720 On ch=1 n=71 v=49
30720 On ch=1 n=64 v=49
30720 On ch=1 n=60 v=49
30720 On ch=1 n=57 v=49
31199 On ch=1 n=71 v=0
31200 On ch=1 n=72 v=49
31679 On ch=1 n=72 v=0
31679 On ch=1 n=64 v=0
31679 On ch=1 n=60 v=0
31679 On ch=1 n=57 v=0
31680 On ch=1 n=76 v=49
32159 On ch=1 n=76 v=0
32160 On ch=1 n=74 v=49
32160 On ch=1 n=64 v=49
32160 On ch=1 n=59 v=49
32160 On ch=1 n=55 v=49
32639 On ch=1 n=74 v=0
32640 On ch=1 n=71 v=49
33119 On ch=1 n=71 v=0
33119 On ch=1 n=64 v=0
33119 On ch=1 n=59 v=0
33119 On ch=1 n=55 v=0
33120 On ch=1 n=74 v=49
33599 On ch=1 n=74 v=0
33600 On ch=1 n=72 v=49
33600 On ch=1 n=64 v=49
33600 On ch=1 n=59 v=49
33600 On ch=1 n=55 v=49
33600 On ch=1 n=50 v=49
34079 On ch=1 n=72 v=0
34080 On ch=1 n=71 v=49
34559 On ch=1 n=71 v=0
34559 On ch=1 n=64 v=0
34559 On ch=1 n=59 v=0
34559 On ch=1 n=55 v=0
34559 On ch=1 n=50 v=0
34560 On ch=1 n=74 v=49
35040 On ch=1 n=62 v=49
35040 On ch=1 n=57 v=49
35040 On ch=1 n=52 v=49
35040 On ch=1 n=48 v=49
35999 On ch=1 n=62 v=0
35999 On ch=1 n=57 v=0
35999 On ch=1 n=52 v=0
35999 On ch=1 n=48 v=0
36480 On ch=1 n=62 v=49
36480 On ch=1 n=57 v=49
36480 On ch=1 n=54 v=49
36480 On ch=1 n=48 v=49
36959 On ch=1 n=74 v=0
36960 On ch=1 n=74 v=49
37439 On ch=1 n=74 v=0
37439 On ch=1 n=62 v=0
37439 On ch=1 n=57 v=0
37439 On ch=1 n=54 v=0
37439 On ch=1 n=48 v=0
37440 On ch=1 n=76 v=49
37919 On ch=1 n=76 v=0
37920 On ch=1 n=77 v=49
37920 On ch=1 n=65 v=49
37920 On ch=1 n=60 v=49
37920 On ch=1 n=57 v=49
38399 On ch=1 n=77 v=0
38400 On ch=1 n=79 v=49
38879 On ch=1 n=79 v=0
38879 On ch=1 n=65 v=0
38879 On ch=1 n=60 v=0
38879 On ch=1 n=57 v=0
38880 On ch=1 n=81 v=49
39359 On ch=1 n=81 v=0
39360 On ch=1 n=72 v=49
39360 On ch=1 n=65 v=49
39360 On ch=1 n=60 v=49
39360 On ch=1 n=57 v=49
39839 On ch=1 n=72 v=0
39840 On ch=1 n=74 v=49
40319 On ch=1 n=74 v=0
40319 On ch=1 n=65 v=0
40319 On ch=1 n=60 v=0
40319 On ch=1 n=57 v=0
40320 On ch=1 n=76 v=49
40799 On ch=1 n=76 v=0
40800 On ch=1 n=74 v=49
40800 On ch=1 n=64 v=49
40800 On ch=1 n=59 v=49
40800 On ch=1 n=55 v=49
40800 On ch=1 n=50 v=49
41279 On ch=1 n=74 v=0
41280 On ch=1 n=71 v=49
41759 On ch=1 n=71 v=0
41759 On ch=1 n=64 v=0
41759 On ch=1 n=59 v=0
41759 On ch=1 n=55 v=0
41759 On ch=1 n=50 v=0
41760 On ch=1 n=74 v=49
42240 On ch=1 n=62 v=49
42240 On ch=1 n=57 v=49
42240 On ch=1 n=52 v=49
42240 On ch=1 n=48 v=49
43199 On ch=1 n=62 v=0
43199 On ch=1 n=57 v=0
43199 On ch=1 n=52 v=0
43199 On ch=1 n=48 v=0
43680 On ch=1 n=62 v=49
43680 On ch=1 n=57 v=49
43680 On ch=1 n=54 v=49
43680 On ch=1 n=48 v=49
44159 On ch=1 n=74 v=0
44160 On ch=1 n=74 v=49
44639 On ch=1 n=74 v=0
44639 On ch=1 n=62 v=0
44639 On ch=1 n=57 v=0
44639 On ch=1 n=54 v=0
44639 On ch=1 n=48 v=0
44640 On ch=1 n=79 v=49
45120 On ch=1 n=67 v=49
45120 On ch=1 n=64 v=49
45120 On ch=1 n=59 v=49
46079 On ch=1 n=79 v=0
46079 On ch=1 n=67 v=0
46079 On ch=1 n=64 v=0
46079 On ch=1 n=59 v=0
46080 On ch=1 n=78 v=49
46560 On ch=1 n=66 v=49
46560 On ch=1 n=61 v=49
46560 On ch=1 n=57 v=49
47519 On ch=1 n=78 v=0
47519 On ch=1 n=66 v=0
47519 On ch=1 n=61 v=0
47519 On ch=1 n=57 v=0
47520 On ch=1 n=71 v=49
47999 On ch=1 n=71 v=0
48000 On ch=1 n=69 v=49
48000 On ch=1 n=66 v=49
48000 On ch=1 n=62 v=49
48000 On ch=1 n=59 v=49
48479 On ch=1 n=69 v=0
48480 On ch=1 n=71 v=49
48959 On ch=1 n=71 v=0
48959 On ch=1 n=66 v=0
48959 On ch=1 n=62 v=0
48959 On ch=1 n=59 v=0
48960 On ch=1 n=73 v=49
49439 On ch=1 n=73 v=0
49440 On ch=1 n=74 v=49
49440 On ch=1 n=69 v=49
49440 On ch=1 n=64 v=49
49440 On ch=1 n=61 v=49
49919 On ch=1 n=74 v=0
49920 On ch=1 n=76 v=49
50399 On ch=1 n=76 v=0
50399 On ch=1 n=69 v=0
50399 On ch=1 n=64 v=0
50399 On ch=1 n=61 v=0
50400 On ch=1 n=73 v=49
50879 On ch=1 n=73 v=0
50880 On ch=1 n=74 v=49
50880 On ch=1 n=69 v=49
50880 On ch=1 n=66 v=49
50880 On ch=1 n=61 v=49
50880 On ch=1 n=57 v=49
51359 On ch=1 n=74 v=0
51360 On ch=1 n=76 v=49
51839 On ch=1 n=76 v=0
51839 On ch=1 n=69 v=0
51839 On ch=1 n=66 v=0
51839 On ch=1 n=61 v=0
51839 On ch=1 n=57 v=0
51840 On ch=1 n=66 v=49
52320 On ch=1 n=62 v=49
52320 On ch=1 n=57 v=49
52799 On ch=1 n=62 v=0
52799 On ch=1 n=57 v=0
52800 On ch=1 n=67 v=49
52800 On ch=1 n=62 v=49
52800 On ch=1 n=59 v=49
53279 On ch=1 n=66 v=0
53279 On ch=1 n=67 v=0
53279 On ch=1 n=62 v=0
53279 On ch=1 n=59 v=0
53280 On ch=1 n=72 v=49
53280 On ch=1 n=69 v=49
53280 On ch=1 n=64 v=49
53280 On ch=1 n=60 v=49
54719 On ch=1 n=72 v=0
54719 On ch=1 n=69 v=0
54719 On ch=1 n=64 v=0
54719 On ch=1 n=60 v=0
54720 On ch=1 n=74 v=49
54720 On ch=1 n=69 v=49
54720 On ch=1 n=66 v=49
54720 On ch=1 n=62 v=49
56159 On ch=1 n=74 v=0
56159 On ch=1 n=69 v=0
56159 On ch=1 n=66 v=0
56159 On ch=1 n=62 v=0
56640 On ch=1 n=66 v=33
56640 On ch=1 n=62 v=33
56640 On ch=1 n=59 v=33
57599 On ch=1 n=66 v=0
57599 On ch=1 n=62 v=0
57599 On ch=1 n=59 v=0
58080 On ch=1 n=66 v=33
58080 On ch=1 n=61 v=33
58080 On ch=1 n=57 v=33
59039 On ch=1 n=66 v=0
59039 On ch=1 n=61 v=0
59039 On ch=1 n=57 v=0
59520 On ch=1 n=66 v=33
59520 On ch=1 n=62 v=33
59520 On ch=1 n=59 v=33
60479 On ch=1 n=66 v=0
60479 On ch=1 n=62 v=0
60479 On ch=1 n=59 v=0
60960 On ch=1 n=66 v=33
60960 On ch=1 n=61 v=33
60960 On ch=1 n=57 v=33
61919 On ch=1 n=66 v=0
61919 On ch=1 n=61 v=0
61919 On ch=1 n=57 v=0
62400 On ch=1 n=78 v=33
62400 On ch=1 n=66 v=33
62400 On ch=1 n=62 v=33
62400 On ch=1 n=59 v=33
62879 On ch=1 n=78 v=0
62880 On ch=1 n=81 v=33
63359 On ch=1 n=81 v=0
63359 On ch=1 n=66 v=0
63359 On ch=1 n=62 v=0
63359 On ch=1 n=59 v=0
63360 On ch=1 n=79 v=33
63839 On ch=1 n=79 v=0
63840 On ch=1 n=78 v=33
63840 On ch=1 n=66 v=33
63840 On ch=1 n=61 v=33
63840 On ch=1 n=57 v=33
64319 On ch=1 n=78 v=0
64320 On ch=1 n=73 v=33
64799 On ch=1 n=73 v=0
64799 On ch=1 n=66 v=0
64799 On ch=1 n=61 v=0
64799 On ch=1 n=57 v=0
64800 On ch=1 n=71 v=33
65279 On ch=1 n=71 v=0
65280 On ch=1 n=73 v=33
65280 On ch=1 n=66 v=33
65280 On ch=1 n=62 v=33
65280 On ch=1 n=59 v=33
65759 On ch=1 n=73 v=0
65760 On ch=1 n=74 v=33
66239 On ch=1 n=74 v=0
66239 On ch=1 n=66 v=0
66239 On ch=1 n=62 v=0
66239 On ch=1 n=59 v=0
66240 On ch=1 n=69 v=33
66720 On ch=1 n=66 v=33
66720 On ch=1 n=61 v=33
66720 On ch=1 n=57 v=33
67679 On ch=1 n=69 v=0
67679 On ch=1 n=66 v=0
67679 On ch=1 n=61 v=0
67679 On ch=1 n=57 v=0
67680 On ch=1 n=66 v=33
68160 On ch=1 n=66 v=33
68160 On ch=1 n=62 v=33
68160 On ch=1 n=59 v=33
69119 On ch=1 n=66 v=0
69119 On ch=1 n=62 v=0
69119 On ch=1 n=59 v=0
69600 On ch=1 n=66 v=33
69600 On ch=1 n=61 v=33
69600 On ch=1 n=57 v=33
70559 On ch=1 n=66 v=0
70559 On ch=1 n=61 v=0
70559 On ch=1 n=57 v=0
71040 On ch=1 n=66 v=33
71040 On ch=1 n=62 v=33
71040 On ch=1 n=59 v=33
71999 On ch=1 n=66 v=0
71999 On ch=1 n=62 v=0
71999 On ch=1 n=59 v=0
72480 On ch=1 n=66 v=33
72480 On ch=1 n=61 v=33
72480 On ch=1 n=57 v=33
73439 On ch=1 n=66 v=0
73439 On ch=1 n=61 v=0
73439 On ch=1 n=57 v=0
73439 On ch=1 n=66 v=0
73920 On ch=1 n=78 v=33
73920 On ch=1 n=66 v=33
73920 On ch=1 n=62 v=33
73920 On ch=1 n=59 v=33
74399 On ch=1 n=78 v=0
74400 On ch=1 n=81 v=33
74879 On ch=1 n=81 v=0
74879 On ch=1 n=66 v=0
74879 On ch=1 n=62 v=0
74879 On ch=1 n=59 v=0
74880 On ch=1 n=79 v=33
75359 On ch=1 n=79 v=0
75360 On ch=1 n=78 v=33
75360 On ch=1 n=66 v=33
75360 On ch=1 n=61 v=33
75360 On ch=1 n=57 v=33
75839 On ch=1 n=78 v=0
75840 On ch=1 n=73 v=33
76319 On ch=1 n=73 v=0
76319 On ch=1 n=66 v=0
76319 On ch=1 n=61 v=0
76319 On ch=1 n=57 v=0
76320 On ch=1 n=71 v=33
76799 On ch=1 n=71 v=0
76800 On ch=1 n=73 v=33
76800 On ch=1 n=66 v=33
76800 On ch=1 n=62 v=33
76800 On ch=1 n=59 v=33
77279 On ch=1 n=73 v=0
77280 On ch=1 n=74 v=33
77759 On ch=1 n=74 v=0
77759 On ch=1 n=66 v=0
77759 On ch=1 n=62 v=0
77759 On ch=1 n=59 v=0
77760 On ch=1 n=69 v=33
78240 On ch=1 n=66 v=33
78240 On ch=1 n=61 v=33
78240 On ch=1 n=57 v=33
79199 On ch=1 n=69 v=0
79199 On ch=1 n=66 v=0
79199 On ch=1 n=61 v=0
79199 On ch=1 n=57 v=0
79200 On ch=1 n=73 v=33
79680 On ch=1 n=66 v=33
79680 On ch=1 n=61 v=33
79680 On ch=1 n=57 v=33
80639 On ch=1 n=73 v=0
80639 On ch=1 n=66 v=0
80639 On ch=1 n=61 v=0
80639 On ch=1 n=57 v=0
80640 On ch=1 n=78 v=33
81120 On ch=1 n=66 v=33
81120 On ch=1 n=62 v=33
81120 On ch=1 n=59 v=33
82079 On ch=1 n=78 v=0
82079 On ch=1 n=66 v=0
82079 On ch=1 n=62 v=0
82079 On ch=1 n=59 v=0
82080 On ch=1 n=64 v=33
82560 On ch=1 n=59 v=33
82560 On ch=1 n=55 v=33
83519 On ch=1 n=59 v=0
83519 On ch=1 n=55 v=0
84000 On ch=1 n=67 v=33
84000 On ch=1 n=62 v=33
84000 On ch=1 n=59 v=33
84959 On ch=1 n=67 v=0
84959 On ch=1 n=62 v=0
84959 On ch=1 n=59 v=0
85440 On ch=1 n=62 v=33
85440 On ch=1 n=57 v=33
85440 On ch=1 n=53 v=33
86399 On ch=1 n=62 v=0
86399 On ch=1 n=57 v=0
86399 On ch=1 n=53 v=0
86399 On ch=1 n=64 v=0
86400 On ch=1 n=69 v=33
86879 On ch=1 n=69 v=0
86880 On ch=1 n=71 v=33
86880 On ch=1 n=64 v=33
86880 On ch=1 n=60 v=33
86880 On ch=1 n=57 v=33
87359 On ch=1 n=71 v=0
87360 On ch=1 n=72 v=33
87839 On ch=1 n=72 v=0
87839 On ch=1 n=64 v=0
87839 On ch=1 n=60 v=0
87839 On ch=1 n=57 v=0
87840 On ch=1 n=76 v=33
88319 On ch=1 n=76 v=0
88320 On ch=1 n=74 v=33
88320 On ch=1 n=64 v=33
88320 On ch=1 n=59 v=33
88320 On ch=1 n=55 v=33
88799 On ch=1 n=74 v=0
88800 On ch=1 n=71 v=33
89279 On ch=1 n=71 v=0
89279 On ch=1 n=64 v=0
89279 On ch=1 n=59 v=0
89279 On ch=1 n=55 v=0
89280 On ch=1 n=74 v=33
89759 On ch=1 n=74 v=0
89760 On ch=1 n=72 v=33
89760 On ch=1 n=64 v=33
89760 On ch=1 n=59 v=33
89760 On ch=1 n=55 v=33
89760 On ch=1 n=50 v=33
90239 On ch=1 n=72 v=0
90240 On ch=1 n=71 v=33
90719 On ch=1 n=71 v=0
90719 On ch=1 n=64 v=0
90719 On ch=1 n=59 v=0
90719 On ch=1 n=55 v=0
90719 On ch=1 n=50 v=0
90720 On ch=1 n=74 v=33
91200 On ch=1 n=62 v=33
91200 On ch=1 n=57 v=33
91200 On ch=1 n=52 v=33
91200 On ch=1 n=48 v=33
92159 On ch=1 n=62 v=0
92159 On ch=1 n=57 v=0
92159 On ch=1 n=52 v=0
92159 On ch=1 n=48 v=0
92640 On ch=1 n=62 v=33
92640 On ch=1 n=57 v=33
92640 On ch=1 n=54 v=33
92640 On ch=1 n=48 v=33
93119 On ch=1 n=74 v=0
93120 On ch=1 n=74 v=33
93599 On ch=1 n=74 v=0
93599 On ch=1 n=62 v=0
93599 On ch=1 n=57 v=0
93599 On ch=1 n=54 v=0
93599 On ch=1 n=48 v=0
93600 On ch=1 n=76 v=33
94079 On ch=1 n=76 v=0
94080 On ch=1 n=77 v=33
94080 On ch=1 n=65 v=33
94080 On ch=1 n=60 v=33
94080 On ch=1 n=57 v=33
94559 On ch=1 n=77 v=0
94560 On ch=1 n=79 v=33
95039 On ch=1 n=79 v=0
95039 On ch=1 n=65 v=0
95039 On ch=1 n=60 v=0
95039 On ch=1 n=57 v=0
95040 On ch=1 n=81 v=33
95519 On ch=1 n=81 v=0
95520 On ch=1 n=72 v=33
95520 On ch=1 n=64 v=33
95520 On ch=1 n=60 v=33
95520 On ch=1 n=57 v=33
95999 On ch=1 n=72 v=0
96000 On ch=1 n=74 v=33
96479 On ch=1 n=74 v=0
96479 On ch=1 n=64 v=0
96479 On ch=1 n=60 v=0
96479 On ch=1 n=57 v=0
96480 On ch=1 n=76 v=33
96959 On ch=1 n=76 v=0
96960 On ch=1 n=74 v=33
96960 On ch=1 n=64 v=33
96960 On ch=1 n=59 v=33
96960 On ch=1 n=55 v=33
96960 On ch=1 n=50 v=33
97439 On ch=1 n=74 v=0
97440 On ch=1 n=71 v=33
97919 On ch=1 n=71 v=0
97919 On ch=1 n=64 v=0
97919 On ch=1 n=59 v=0
97919 On ch=1 n=55 v=0
97919 On ch=1 n=50 v=0
97920 On ch=1 n=74 v=33
98400 On ch=1 n=62 v=33
98400 On ch=1 n=57 v=33
98400 On ch=1 n=52 v=33
98400 On ch=1 n=48 v=33
99359 On ch=1 n=62 v=0
99359 On ch=1 n=57 v=0
99359 On ch=1 n=52 v=0
99359 On ch=1 n=48 v=0
99840 On ch=1 n=62 v=33
99840 On ch=1 n=57 v=33
99840 On ch=1 n=54 v=33
99840 On ch=1 n=48 v=33
100319 On ch=1 n=74 v=0
100320 On ch=1 n=74 v=33
100799 On ch=1 n=74 v=0
100799 On ch=1 n=62 v=0
100799 On ch=1 n=57 v=0
100799 On ch=1 n=54 v=0
100799 On ch=1 n=48 v=0
100800 On ch=1 n=79 v=33
101280 On ch=1 n=67 v=33
101280 On ch=1 n=64 v=33
101280 On ch=1 n=59 v=33
102239 On ch=1 n=79 v=0
102239 On ch=1 n=67 v=0
102239 On ch=1 n=64 v=0
102239 On ch=1 n=59 v=0
102240 On ch=1 n=77 v=33
102720 On ch=1 n=69 v=33
102720 On ch=1 n=65 v=33
102720 On ch=1 n=62 v=33
102720 On ch=1 n=57 v=33
103679 On ch=1 n=77 v=0
103679 On ch=1 n=69 v=0
103679 On ch=1 n=65 v=0
103679 On ch=1 n=62 v=0
103679 On ch=1 n=57 v=0
103680 On ch=1 n=71 v=33
104159 On ch=1 n=71 v=0
104160 On ch=1 n=72 v=33
104160 On ch=1 n=65 v=33
104160 On ch=1 n=60 v=33
104160 On ch=1 n=57 v=33
104639 On ch=1 n=72 v=0
104640 On ch=1 n=77 v=33
105119 On ch=1 n=77 v=0
105119 On ch=1 n=65 v=0
105119 On ch=1 n=60 v=0
105119 On ch=1 n=57 v=0
105120 On ch=1 n=76 v=33
105599 On ch=1 n=76 v=0
105600 On ch=1 n=74 v=33
105600 On ch=1 n=69 v=33
105600 On ch=1 n=64 v=33
105600 On ch=1 n=60 v=33
106079 On ch=1 n=74 v=0
106080 On ch=1 n=72 v=33
106559 On ch=1 n=72 v=0
106559 On ch=1 n=69 v=0
106559 On ch=1 n=64 v=0
106559 On ch=1 n=60 v=0
106560 On ch=1 n=76 v=33
107039 On ch=1 n=76 v=0
107040 On ch=1 n=74 v=33
107040 On ch=1 n=69 v=33
107040 On ch=1 n=65 v=33
107040 On ch=1 n=60 v=33
107040 On ch=1 n=57 v=33
107519 On ch=1 n=74 v=0
107520 On ch=1 n=72 v=33
107999 On ch=1 n=72 v=0
107999 On ch=1 n=69 v=0
107999 On ch=1 n=65 v=0
107999 On ch=1 n=60 v=0
107999 On ch=1 n=57 v=0
108000 On ch=1 n=65 v=33
108480 On ch=1 n=62 v=33
108480 On ch=1 n=57 v=33
108959 On ch=1 n=62 v=0
108959 On ch=1 n=57 v=0
108960 On ch=1 n=67 v=33
108960 On ch=1 n=64 v=33
108960 On ch=1 n=59 v=33
109439 On ch=1 n=65 v=0
109439 On ch=1 n=67 v=0
109439 On ch=1 n=64 v=0
109439 On ch=1 n=59 v=0
109440 On ch=1 n=72 v=33
109440 On ch=1 n=69 v=33
109440 On ch=1 n=64 v=33
109440 On ch=1 n=60 v=33
110879 On ch=1 n=72 v=0
110879 On ch=1 n=69 v=0
110879 On ch=1 n=64 v=0
110879 On ch=1 n=60 v=0
110880 On ch=1 n=74 v=33
110880 On ch=1 n=69 v=33
110880 On ch=1 n=65 v=33
110880 On ch=1 n=62 v=33
112319 On ch=1 n=74 v=0
112319 On ch=1 n=69 v=0
112319 On ch=1 n=65 v=0
112319 On ch=1 n=62 v=0
112320 Meta TrkEnd
TrkEnd
MTrk
0 KeySig 2 major
0 On ch=1 n=43 v=33
1439 On ch=1 n=43 v=0
1440 On ch=1 n=38 v=33
2879 On ch=1 n=38 v=0
2880 On ch=1 n=43 v=33
4319 On ch=1 n=43 v=0
4320 On ch=1 n=38 v=33
5759 On ch=1 n=38 v=0
5760 On ch=1 n=43 v=33
7199 On ch=1 n=43 v=0
7200 On ch=1 n=38 v=33
8639 On ch=1 n=38 v=0
8640 On ch=1 n=43 v=33
10079 On ch=1 n=43 v=0
10080 On ch=1 n=38 v=33
11519 On ch=1 n=38 v=0
11520 On ch=1 n=43 v=33
12959 On ch=1 n=43 v=0
12960 On ch=1 n=38 v=33
14399 On ch=1 n=38 v=0
14400 On ch=1 n=43 v=33
15839 On ch=1 n=43 v=0
15840 On ch=1 n=38 v=33
17279 On ch=1 n=38 v=0
17280 On ch=1 n=43 v=33
18719 On ch=1 n=43 v=0
18720 On ch=1 n=38 v=33
20159 On ch=1 n=38 v=0
20160 On ch=1 n=43 v=33
21599 On ch=1 n=43 v=0
21600 On ch=1 n=38 v=33
23039 On ch=1 n=38 v=0
23040 On ch=1 n=42 v=33
24479 On ch=1 n=42 v=0
24480 On ch=1 n=35 v=33
25919 On ch=1 n=35 v=0
25920 On ch=1 n=40 v=33
27359 On ch=1 n=40 v=0
27360 On ch=1 n=40 v=33
28799 On ch=1 n=40 v=0
28800 On ch=1 n=38 v=33
30239 On ch=1 n=38 v=0
30240 On ch=1 n=33 v=49
31679 On ch=1 n=33 v=0
31680 On ch=1 n=38 v=49
33119 On ch=1 n=38 v=0
33120 On ch=1 n=38 v=49
34559 On ch=1 n=38 v=0
34560 On ch=1 n=38 v=49
35999 On ch=1 n=38 v=0
36000 On ch=1 n=38 v=49
37439 On ch=1 n=38 v=0
37440 On ch=1 n=38 v=49
38879 On ch=1 n=38 v=0
38880 On ch=1 n=38 v=49
40319 On ch=1 n=38 v=0
40320 On ch=1 n=38 v=49
41759 On ch=1 n=38 v=0
41760 On ch=1 n=38 v=49
43199 On ch=1 n=38 v=0
43200 On ch=1 n=38 v=49
44639 On ch=1 n=38 v=0
44640 On ch=1 n=40 v=49
46079 On ch=1 n=40 v=0
46080 On ch=1 n=42 v=49
47519 On ch=1 n=42 v=0
47520 On ch=1 n=35 v=49
48959 On ch=1 n=35 v=0
48960 On ch=1 n=40 v=49
50399 On ch=1 n=40 v=0
50400 On ch=1 n=40 v=49
51839 On ch=1 n=40 v=0
51840 On ch=1 n=40 v=49
52320 On ch=1 n=47 v=49
52799 On ch=1 n=47 v=0
52800 On ch=1 n=52 v=49
53279 On ch=1 n=52 v=0
53279 On ch=1 n=40 v=0
53280 On ch=1 n=55 v=49
53280 On ch=1 n=45 v=49
54719 On ch=1 n=55 v=0
54719 On ch=1 n=45 v=0
54720 On ch=1 n=50 v=49
54720 On ch=1 n=45 v=49
54720 On ch=1 n=38 v=49
56159 On ch=1 n=50 v=0
56159 On ch=1 n=45 v=0
56159 On ch=1 n=38 v=0
56160 On ch=1 n=43 v=33
57599 On ch=1 n=43 v=0
57600 On ch=1 n=38 v=33
59039 On ch=1 n=38 v=0
59040 On ch=1 n=43 v=33
60479 On ch=1 n=43 v=0
60480 On ch=1 n=38 v=33
61919 On ch=1 n=38 v=0
61920 On ch=1 n=43 v=33
63359 On ch=1 n=43 v=0
63360 On ch=1 n=38 v=33
64799 On ch=1 n=38 v=0
64800 On ch=1 n=43 v=33
66239 On ch=1 n=43 v=0
66240 On ch=1 n=38 v=33
67679 On ch=1 n=38 v=0
67680 On ch=1 n=43 v=33
69119 On ch=1 n=43 v=0
69120 On ch=1 n=38 v=33
70559 On ch=1 n=38 v=0
70560 On ch=1 n=43 v=33
71999 On ch=1 n=43 v=0
72000 On ch=1 n=38 v=33
73439 On ch=1 n=38 v=0
73440 On ch=1 n=43 v=33
74879 On ch=1 n=43 v=0
74880 On ch=1 n=38 v=33
76319 On ch=1 n=38 v=0
76320 On ch=1 n=43 v=33
77759 On ch=1 n=43 v=0
77760 On ch=1 n=38 v=33
79199 On ch=1 n=38 v=0
79200 On ch=1 n=42 v=33
80639 On ch=1 n=42 v=0
80640 On ch=1 n=35 v=33
82079 On ch=1 n=35 v=0
82080 On ch=1 n=40 v=33
83519 On ch=1 n=40 v=0
83520 On ch=1 n=40 v=33
84959 On ch=1 n=40 v=0
84960 On ch=1 n=38 v=33
86399 On ch=1 n=38 v=0
86400 On ch=1 n=33 v=33
87839 On ch=1 n=33 v=0
87840 On ch=1 n=38 v=33
89279 On ch=1 n=38 v=0
89280 On ch=1 n=38 v=33
90719 On ch=1 n=38 v=0
90720 On ch=1 n=38 v=33
92159 On ch=1 n=38 v=0
92160 On ch=1 n=38 v=33
93599 On ch=1 n=38 v=0
93600 On ch=1 n=38 v=33
95039 On ch=1 n=38 v=0
95040 On ch=1 n=38 v=33
96479 On ch=1 n=38 v=0
96480 On ch=1 n=38 v=33
97919 On ch=1 n=38 v=0
97920 On ch=1 n=38 v=33
99359 On ch=1 n=38 v=0
99360 On ch=1 n=38 v=33
100799 On ch=1 n=38 v=0
100800 On ch=1 n=40 v=33
102239 On ch=1 n=40 v=0
102240 On ch=1 n=40 v=33
103679 On ch=1 n=40 v=0
103680 On ch=1 n=40 v=33
105119 On ch=1 n=40 v=0
105120 On ch=1 n=40 v=33
106559 On ch=1 n=40 v=0
106560 On ch=1 n=40 v=33
107999 On ch=1 n=40 v=0
108000 On ch=1 n=40 v=33
108480 On ch=1 n=47 v=33
108959 On ch=1 n=47 v=0
108960 On ch=1 n=52 v=33
109439 On ch=1 n=52 v=0
109439 On ch=1 n=40 v=0
109440 On ch=1 n=55 v=33
109440 On ch=1 n=45 v=33
110879 On ch=1 n=55 v=0
110879 On ch=1 n=45 v=0
110880 On ch=1 n=50 v=33
110880 On ch=1 n=45 v=33
110880 On ch=1 n=38 v=33
112319 On ch=1 n=50 v=0
112319 On ch=1 n=45 v=0
112319 On ch=1 n=38 v=0
112320 Meta TrkEnd
TrkEnd
