MFile 1 2 480
MTrk
0 Meta 0x0c  4e 6f 63 74 75 72 6e 65 5f 4f 70 2e 5f 39 5f 4e 6f 2e 5f 32 5f 69 6e 5f 45 5f 4d 61 6a 6f 72 00
0 TimeSig 1/8 24 8
0 KeySig 253 major
0 PrCh ch=1 p=0
0 On ch=1 n=70 v=34
2 Par ch=1 c=7 v=100
4 Par ch=1 c=10 v=64
6 Par ch=1 c=91 v=30
8 Par ch=1 c=93 v=30
239 On ch=1 n=70 v=0
240 TimeSig 12/8 24 8
240 On ch=1 n=79 v=34
1199 On ch=1 n=79 v=0
1200 On ch=1 n=77 v=34
1439 On ch=1 n=77 v=0
1440 On ch=1 n=79 v=34
1679 On ch=1 n=79 v=0
1680 On ch=1 n=77 v=34
2399 On ch=1 n=77 v=0
2400 On ch=1 n=75 v=34
2879 On ch=1 n=75 v=0
2880 On ch=1 n=70 v=34
3119 On ch=1 n=70 v=0
3120 On ch=1 n=79 v=34
3599 On ch=1 n=79 v=0
3600 On ch=1 n=73 v=34
3659 On ch=1 n=73 v=0
3660 On ch=1 n=72 v=34
3719 On ch=1 n=72 v=0
3720 On ch=1 n=71 v=34
3779 On ch=1 n=71 v=0
3780 On ch=1 n=72 v=34
3839 On ch=1 n=72 v=0
3840 On ch=1 n=84 v=34
4319 On ch=1 n=84 v=0
4320 On ch=1 n=79 v=34
4559 On ch=1 n=79 v=0
4560 On ch=1 n=82 v=34
5279 On ch=1 n=82 v=0
5280 On ch=1 n=80 v=34
5759 On ch=1 n=80 v=0
5760 On ch=1 n=79 v=34
5999 On ch=1 n=79 v=0
6000 On ch=1 n=77 v=34
6719 On ch=1 n=77 v=0
6720 On ch=1 n=79 v=34
7199 On ch=1 n=79 v=0
7200 On ch=1 n=74 v=34
7439 On ch=1 n=74 v=0
7440 On ch=1 n=75 v=34
8159 On ch=1 n=75 v=0
8160 On ch=1 n=72 v=34
8879 On ch=1 n=72 v=0
8880 On ch=1 n=70 v=68
9119 On ch=1 n=70 v=0
9120 On ch=1 n=86 v=68
9359 On ch=1 n=86 v=0
9360 On ch=1 n=84 v=68
9599 On ch=1 n=84 v=0
9600 On ch=1 n=82 v=68
9719 On ch=1 n=82 v=0
9720 On ch=1 n=80 v=68
9839 On ch=1 n=80 v=0
9840 On ch=1 n=79 v=68
9959 On ch=1 n=79 v=0
9960 On ch=1 n=80 v=68
10079 On ch=1 n=80 v=0
10080 On ch=1 n=72 v=68
10199 On ch=1 n=72 v=0
10200 On ch=1 n=74 v=68
10319 On ch=1 n=74 v=0
10320 On ch=1 n=75 v=68
11039 On ch=1 n=75 v=0
11520 On ch=1 n=70 v=34
11759 On ch=1 n=70 v=0
11760 On ch=1 n=79 v=34
12479 On ch=1 n=79 v=0
12480 On ch=1 n=77 v=34
12599 On ch=1 n=77 v=0
12600 On ch=1 n=79 v=34
12719 On ch=1 n=79 v=0
12720 On ch=1 n=79 v=34
12749 On ch=1 n=79 v=0
12750 On ch=1 n=77 v=34
12779 On ch=1 n=77 v=0
12780 On ch=1 n=79 v=34
12809 On ch=1 n=79 v=0
12810 On ch=1 n=77 v=34
12839 On ch=1 n=77 v=0
12840 On ch=1 n=76 v=34
12959 On ch=1 n=76 v=0
12960 On ch=1 n=77 v=34
13079 On ch=1 n=77 v=0
13080 On ch=1 n=79 v=34
13199 On ch=1 n=79 v=0
13200 On ch=1 n=77 v=34
13439 On ch=1 n=77 v=0
13440 On ch=1 n=75 v=34
14039 On ch=1 n=75 v=0
14040 On ch=1 n=77 v=34
14159 On ch=1 n=77 v=0
14160 On ch=1 n=77 v=34
14189 On ch=1 n=77 v=0
14190 On ch=1 n=75 v=34
14219 On ch=1 n=75 v=0
14220 On ch=1 n=77 v=34
14249 On ch=1 n=77 v=0
14250 On ch=1 n=75 v=34
14279 On ch=1 n=75 v=0
14280 On ch=1 n=74 v=34
14399 On ch=1 n=74 v=0
14400 On ch=1 n=75 v=34
14519 On ch=1 n=75 v=0
14520 On ch=1 n=77 v=34
14639 On ch=1 n=77 v=0
14640 On ch=1 n=79 v=34
14759 On ch=1 n=79 v=0
14760 On ch=1 n=71 v=34
14879 On ch=1 n=71 v=0
14880 On ch=1 n=72 v=34
14999 On ch=1 n=72 v=0
15000 On ch=1 n=73 v=34
15119 On ch=1 n=73 v=0
15120 On ch=1 n=72 v=34
15239 On ch=1 n=72 v=0
15240 On ch=1 n=77 v=34
15359 On ch=1 n=77 v=0
15360 On ch=1 n=76 v=34
15479 On ch=1 n=76 v=0
15480 On ch=1 n=80 v=34
15599 On ch=1 n=80 v=0
15600 On ch=1 n=79 v=34
15719 On ch=1 n=79 v=0
15720 On ch=1 n=85 v=34
15839 On ch=1 n=85 v=0
15840 On ch=1 n=84 v=34
15959 On ch=1 n=84 v=0
15960 On ch=1 n=79 v=34
16079 On ch=1 n=79 v=0
16080 On ch=1 n=82 v=34
16799 On ch=1 n=82 v=0
16800 On ch=1 n=80 v=34
17279 On ch=1 n=80 v=0
17280 On ch=1 n=79 v=34
17519 On ch=1 n=79 v=0
17520 On ch=1 n=79 v=34
18179 On ch=1 n=79 v=0
18180 On ch=1 n=79 v=34
18180 On ch=1 n=76 v=34
18209 On ch=1 n=79 v=0
18209 On ch=1 n=76 v=0
18210 On ch=1 n=77 v=34
18239 On ch=1 n=77 v=0
18240 On ch=1 n=79 v=34
18479 On ch=1 n=79 v=0
18480 On ch=1 n=79 v=34
18719 On ch=1 n=79 v=0
18720 On ch=1 n=74 v=34
18959 On ch=1 n=74 v=0
18960 On ch=1 n=75 v=34
19679 On ch=1 n=75 v=0
19680 On ch=1 n=72 v=34
20399 On ch=1 n=72 v=0
20400 On ch=1 n=70 v=34
20639 On ch=1 n=70 v=0
20640 On ch=1 n=86 v=34
20879 On ch=1 n=86 v=0
20880 On ch=1 n=84 v=34
21119 On ch=1 n=84 v=0
21120 On ch=1 n=82 v=34
21239 On ch=1 n=82 v=0
21240 On ch=1 n=80 v=34
21359 On ch=1 n=80 v=0
21360 On ch=1 n=79 v=34
21479 On ch=1 n=79 v=0
21480 On ch=1 n=80 v=34
21569 On ch=1 n=80 v=0
21570 On ch=1 n=80 v=34
21599 On ch=1 n=80 v=0
21600 On ch=1 n=72 v=34
21719 On ch=1 n=72 v=0
21720 On ch=1 n=74 v=34
21839 On ch=1 n=74 v=0
21840 On ch=1 n=75 v=34
22799 On ch=1 n=75 v=0
22800 On ch=1 n=74 v=34
23039 On ch=1 n=74 v=0
23040 On ch=1 n=75 v=34
23279 On ch=1 n=75 v=0
23280 On ch=1 n=77 v=34
23999 On ch=1 n=77 v=0
24000 On ch=1 n=79 v=34
24479 On ch=1 n=79 v=0
24480 On ch=1 n=77 v=34
24719 On ch=1 n=77 v=0
24720 On ch=1 n=77 v=23
25439 On ch=1 n=77 v=0
25440 On ch=1 n=72 v=23
26159 On ch=1 n=72 v=0
26160 On ch=1 n=75 v=23
26399 On ch=1 n=75 v=0
26400 On ch=1 n=75 v=23
26639 On ch=1 n=75 v=0
26640 On ch=1 n=75 v=23
26879 On ch=1 n=75 v=0
26880 On ch=1 n=75 v=23
27119 On ch=1 n=75 v=0
27120 On ch=1 n=74 v=23
27239 On ch=1 n=74 v=0
27240 On ch=1 n=75 v=23
27359 On ch=1 n=75 v=0
27360 On ch=1 n=77 v=23
27420 On ch=1 n=75 v=23
27599 On ch=1 n=75 v=0
27599 On ch=1 n=77 v=0
27600 On ch=1 n=75 v=23
28319 On ch=1 n=75 v=0
28320 On ch=1 n=70 v=23
29039 On ch=1 n=70 v=0
29040 On ch=1 n=82 v=68
29759 On ch=1 n=82 v=0
29760 On ch=1 n=81 v=68
30239 On ch=1 n=81 v=0
30240 On ch=1 n=79 v=68
30479 On ch=1 n=79 v=0
30480 On ch=1 n=77 v=68
30480 On ch=1 n=69 v=68
31199 On ch=1 n=77 v=0
31199 On ch=1 n=69 v=0
31200 On ch=1 n=74 v=68
31200 On ch=1 n=70 v=68
31919 On ch=1 n=74 v=0
31919 On ch=1 n=70 v=0
31920 On ch=1 n=75 v=68
31920 On ch=1 n=67 v=68
32639 On ch=1 n=75 v=0
32639 On ch=1 n=67 v=0
32640 On ch=1 n=74 v=68
32640 On ch=1 n=69 v=68
32879 On ch=1 n=74 v=0
32879 On ch=1 n=69 v=0
32880 On ch=1 n=72 v=68
32880 On ch=1 n=69 v=68
33119 On ch=1 n=72 v=0
33119 On ch=1 n=69 v=0
33120 On ch=1 n=74 v=68
33120 On ch=1 n=69 v=68
33359 On ch=1 n=74 v=0
33359 On ch=1 n=69 v=0
33360 On ch=1 n=70 v=68
33360 On ch=1 n=65 v=68
33599 On ch=1 n=70 v=0
33599 On ch=1 n=65 v=0
33600 On ch=1 n=71 v=68
33600 On ch=1 n=66 v=68
33839 On ch=1 n=71 v=0
33839 On ch=1 n=66 v=0
33840 On ch=1 n=71 v=68
33840 On ch=1 n=64 v=68
34079 On ch=1 n=71 v=0
34079 On ch=1 n=64 v=0
34080 On ch=1 n=72 v=68
34080 On ch=1 n=70 v=68
34080 On ch=1 n=64 v=68
34319 On ch=1 n=72 v=0
34319 On ch=1 n=70 v=0
34319 On ch=1 n=64 v=0
34320 On ch=1 n=72 v=68
34320 On ch=1 n=69 v=68
34320 On ch=1 n=65 v=68
34559 On ch=1 n=72 v=0
34559 On ch=1 n=69 v=0
34559 On ch=1 n=65 v=0
34560 On ch=1 n=74 v=68
34560 On ch=1 n=68 v=68
34799 On ch=1 n=74 v=0
34799 On ch=1 n=68 v=0
34800 On ch=1 n=67 v=34
34919 On ch=1 n=67 v=0
34920 On ch=1 n=70 v=34
35039 On ch=1 n=70 v=0
35160 On ch=1 n=79 v=34
35280 On ch=1 n=69 v=34
35400 On ch=1 n=70 v=34
35519 On ch=1 n=70 v=0
35519 On ch=1 n=69 v=0
35520 On ch=1 n=71 v=34
35639 On ch=1 n=71 v=0
35639 On ch=1 n=79 v=0
35640 On ch=1 n=70 v=34
35759 On ch=1 n=70 v=0
35760 On ch=1 n=73 v=34
35879 On ch=1 n=73 v=0
35880 On ch=1 n=74 v=34
35999 On ch=1 n=74 v=0
36120 On ch=1 n=77 v=34
36239 On ch=1 n=77 v=0
36240 On ch=1 n=77 v=34
36719 On ch=1 n=77 v=0
36720 On ch=1 n=75 v=34
37079 On ch=1 n=75 v=0
37080 On ch=1 n=77 v=34
37199 On ch=1 n=77 v=0
37200 On ch=1 n=77 v=34
37229 On ch=1 n=77 v=0
37230 On ch=1 n=75 v=34
37259 On ch=1 n=75 v=0
37260 On ch=1 n=77 v=34
37289 On ch=1 n=77 v=0
37290 On ch=1 n=75 v=34
37319 On ch=1 n=75 v=0
37320 On ch=1 n=74 v=34
37439 On ch=1 n=74 v=0
37440 On ch=1 n=75 v=34
37559 On ch=1 n=75 v=0
37560 On ch=1 n=77 v=34
37679 On ch=1 n=77 v=0
37680 On ch=1 n=79 v=34
37799 On ch=1 n=79 v=0
37800 On ch=1 n=71 v=34
37919 On ch=1 n=71 v=0
37920 On ch=1 n=72 v=34
38039 On ch=1 n=72 v=0
38040 On ch=1 n=73 v=34
38159 On ch=1 n=73 v=0
38160 On ch=1 n=72 v=34
38279 On ch=1 n=72 v=0
38280 On ch=1 n=77 v=34
38399 On ch=1 n=77 v=0
38400 On ch=1 n=76 v=34
38519 On ch=1 n=76 v=0
38520 On ch=1 n=80 v=34
38639 On ch=1 n=80 v=0
38640 On ch=1 n=79 v=34
38759 On ch=1 n=79 v=0
38760 On ch=1 n=85 v=34
38879 On ch=1 n=85 v=0
38880 On ch=1 n=84 v=34
38999 On ch=1 n=84 v=0
39000 On ch=1 n=79 v=34
39119 On ch=1 n=79 v=0
39120 On ch=1 n=82 v=34
39839 On ch=1 n=82 v=0
39840 On ch=1 n=80 v=34
40319 On ch=1 n=80 v=0
40320 On ch=1 n=79 v=34
40559 On ch=1 n=79 v=0
40560 On ch=1 n=79 v=34
41219 On ch=1 n=79 v=0
41220 On ch=1 n=79 v=34
41220 On ch=1 n=76 v=34
41249 On ch=1 n=79 v=0
41249 On ch=1 n=76 v=0
41250 On ch=1 n=77 v=34
41279 On ch=1 n=77 v=0
41280 On ch=1 n=79 v=34
41519 On ch=1 n=79 v=0
41520 On ch=1 n=79 v=34
41759 On ch=1 n=79 v=0
41760 On ch=1 n=74 v=34
41999 On ch=1 n=74 v=0
42000 On ch=1 n=75 v=34
42719 On ch=1 n=75 v=0
42720 On ch=1 n=72 v=34
43439 On ch=1 n=72 v=0
43440 On ch=1 n=70 v=34
43679 On ch=1 n=70 v=0
43680 On ch=1 n=86 v=34
43919 On ch=1 n=86 v=0
43920 On ch=1 n=85 v=34
44159 On ch=1 n=85 v=0
44160 On ch=1 n=84 v=34
44219 On ch=1 n=84 v=0
44220 On ch=1 n=83 v=34
44279 On ch=1 n=83 v=0
44280 On ch=1 n=82 v=34
44339 On ch=1 n=82 v=0
44340 On ch=1 n=81 v=34
44399 On ch=1 n=81 v=0
44400 On ch=1 n=80 v=34
44459 On ch=1 n=80 v=0
44460 On ch=1 n=77 v=34
44519 On ch=1 n=77 v=0
44520 On ch=1 n=74 v=34
44579 On ch=1 n=74 v=0
44580 On ch=1 n=71 v=34
44639 On ch=1 n=71 v=0
44640 On ch=1 n=70 v=34
44699 On ch=1 n=70 v=0
44700 On ch=1 n=74 v=34
44759 On ch=1 n=74 v=0
44760 On ch=1 n=79 v=34
44799 On ch=1 n=79 v=0
44800 On ch=1 n=77 v=34
44839 On ch=1 n=77 v=0
44840 On ch=1 n=75 v=34
44879 On ch=1 n=75 v=0
44880 On ch=1 n=75 v=34
45839 On ch=1 n=75 v=0
45840 On ch=1 n=74 v=34
46079 On ch=1 n=74 v=0
46080 On ch=1 n=75 v=34
46319 On ch=1 n=75 v=0
46320 On ch=1 n=77 v=34
47039 On ch=1 n=77 v=0
47040 On ch=1 n=79 v=34
47519 On ch=1 n=79 v=0
47520 On ch=1 n=77 v=34
47759 On ch=1 n=77 v=0
47760 On ch=1 n=77 v=34
48479 On ch=1 n=77 v=0
48480 On ch=1 n=72 v=34
49199 On ch=1 n=72 v=0
49200 On ch=1 n=75 v=34
49439 On ch=1 n=75 v=0
49440 On ch=1 n=75 v=34
49679 On ch=1 n=75 v=0
49680 On ch=1 n=75 v=34
49919 On ch=1 n=75 v=0
49920 On ch=1 n=75 v=34
50159 On ch=1 n=75 v=0
50160 On ch=1 n=74 v=34
50279 On ch=1 n=74 v=0
50280 On ch=1 n=75 v=34
50399 On ch=1 n=75 v=0
50400 On ch=1 n=77 v=34
50460 On ch=1 n=75 v=34
50639 On ch=1 n=75 v=0
50639 On ch=1 n=77 v=0
50640 On ch=1 n=75 v=34
51359 On ch=1 n=75 v=0
51360 On ch=1 n=70 v=34
52079 On ch=1 n=70 v=0
52080 On ch=1 n=82 v=68
52799 On ch=1 n=82 v=0
52800 On ch=1 n=81 v=68
53279 On ch=1 n=81 v=0
53280 On ch=1 n=79 v=68
53519 On ch=1 n=79 v=0
53520 On ch=1 n=77 v=68
53520 On ch=1 n=69 v=68
54239 On ch=1 n=77 v=0
54239 On ch=1 n=69 v=0
54240 On ch=1 n=74 v=68
54240 On ch=1 n=70 v=68
54959 On ch=1 n=74 v=0
54959 On ch=1 n=70 v=0
54960 On ch=1 n=75 v=68
54960 On ch=1 n=67 v=68
55679 On ch=1 n=75 v=0
55679 On ch=1 n=67 v=0
55680 On ch=1 n=74 v=68
55680 On ch=1 n=69 v=68
55919 On ch=1 n=74 v=0
55919 On ch=1 n=69 v=0
55920 On ch=1 n=72 v=68
55920 On ch=1 n=69 v=68
56159 On ch=1 n=72 v=0
56159 On ch=1 n=69 v=0
56160 On ch=1 n=74 v=68
56160 On ch=1 n=69 v=68
56399 On ch=1 n=74 v=0
56399 On ch=1 n=69 v=0
56400 On ch=1 n=70 v=68
56400 On ch=1 n=65 v=68
56639 On ch=1 n=70 v=0
56639 On ch=1 n=65 v=0
56640 On ch=1 n=71 v=68
56640 On ch=1 n=66 v=68
56879 On ch=1 n=71 v=0
56879 On ch=1 n=66 v=0
56880 On ch=1 n=71 v=68
56880 On ch=1 n=64 v=68
57119 On ch=1 n=71 v=0
57119 On ch=1 n=64 v=0
57120 On ch=1 n=72 v=68
57120 On ch=1 n=70 v=68
57120 On ch=1 n=64 v=68
57359 On ch=1 n=72 v=0
57359 On ch=1 n=70 v=0
57359 On ch=1 n=64 v=0
57360 On ch=1 n=72 v=68
57360 On ch=1 n=69 v=68
57360 On ch=1 n=65 v=68
57599 On ch=1 n=72 v=0
57599 On ch=1 n=69 v=0
57599 On ch=1 n=65 v=0
57600 On ch=1 n=74 v=68
57600 On ch=1 n=68 v=68
57839 On ch=1 n=74 v=0
57839 On ch=1 n=68 v=0
57840 On ch=1 n=67 v=34
57959 On ch=1 n=67 v=0
57960 On ch=1 n=70 v=34
58079 On ch=1 n=70 v=0
58200 On ch=1 n=79 v=34
58320 On ch=1 n=69 v=34
58440 On ch=1 n=70 v=34
58559 On ch=1 n=70 v=0
58559 On ch=1 n=69 v=0
58560 On ch=1 n=71 v=34
58679 On ch=1 n=71 v=0
58679 On ch=1 n=79 v=0
58680 On ch=1 n=70 v=34
58799 On ch=1 n=70 v=0
58800 On ch=1 n=73 v=34
58919 On ch=1 n=73 v=0
58920 On ch=1 n=74 v=34
59039 On ch=1 n=74 v=0
59160 On ch=1 n=77 v=34
59279 On ch=1 n=77 v=0
59280 On ch=1 n=77 v=34
59759 On ch=1 n=77 v=0
59760 On ch=1 n=75 v=34
60119 On ch=1 n=75 v=0
60120 On ch=1 n=77 v=34
60239 On ch=1 n=77 v=0
60240 On ch=1 n=77 v=34
60240 On ch=1 n=75 v=34
60269 On ch=1 n=77 v=0
60269 On ch=1 n=75 v=0
60270 On ch=1 n=75 v=34
60299 On ch=1 n=75 v=0
60300 On ch=1 n=77 v=34
60329 On ch=1 n=77 v=0
60330 On ch=1 n=75 v=34
60359 On ch=1 n=75 v=0
60360 On ch=1 n=74 v=34
60479 On ch=1 n=74 v=0
60480 On ch=1 n=75 v=34
60599 On ch=1 n=75 v=0
60600 On ch=1 n=77 v=34
60719 On ch=1 n=77 v=0
60720 On ch=1 n=79 v=34
60839 On ch=1 n=79 v=0
60840 On ch=1 n=71 v=34
60959 On ch=1 n=71 v=0
60960 On ch=1 n=72 v=34
61079 On ch=1 n=72 v=0
61080 On ch=1 n=73 v=34
61199 On ch=1 n=73 v=0
61200 On ch=1 n=72 v=34
61319 On ch=1 n=72 v=0
61320 On ch=1 n=77 v=34
61439 On ch=1 n=77 v=0
61440 On ch=1 n=76 v=34
61559 On ch=1 n=76 v=0
61560 On ch=1 n=80 v=34
61679 On ch=1 n=80 v=0
61680 On ch=1 n=79 v=34
61799 On ch=1 n=79 v=0
61800 On ch=1 n=85 v=34
61919 On ch=1 n=85 v=0
61920 On ch=1 n=84 v=34
61979 On ch=1 n=84 v=0
61980 On ch=1 n=79 v=34
62039 On ch=1 n=79 v=0
62040 On ch=1 n=79 v=34
62159 On ch=1 n=79 v=0
62160 On ch=1 n=82 v=34
62879 On ch=1 n=82 v=0
62880 On ch=1 n=80 v=34
63359 On ch=1 n=80 v=0
63360 On ch=1 n=79 v=34
63599 On ch=1 n=79 v=0
63600 On ch=1 n=79 v=34
64259 On ch=1 n=79 v=0
64260 On ch=1 n=79 v=34
64260 On ch=1 n=76 v=34
64289 On ch=1 n=79 v=0
64289 On ch=1 n=76 v=0
64290 On ch=1 n=77 v=34
64319 On ch=1 n=77 v=0
64320 On ch=1 n=79 v=34
64559 On ch=1 n=79 v=0
64560 On ch=1 n=79 v=34
64799 On ch=1 n=79 v=0
64800 On ch=1 n=74 v=34
65039 On ch=1 n=74 v=0
65040 On ch=1 n=75 v=34
65759 On ch=1 n=75 v=0
65760 On ch=1 n=72 v=34
66479 On ch=1 n=72 v=0
66480 On ch=1 n=70 v=34
66599 On ch=1 n=70 v=0
66600 On ch=1 n=86 v=34
66839 On ch=1 n=86 v=0
66840 On ch=1 n=85 v=34
66959 On ch=1 n=85 v=0
66960 On ch=1 n=84 v=34
67139 On ch=1 n=84 v=0
67140 On ch=1 n=83 v=34
67199 On ch=1 n=83 v=0
67200 On ch=1 n=82 v=34
67319 On ch=1 n=82 v=0
67320 On ch=1 n=81 v=34
67439 On ch=1 n=81 v=0
67440 On ch=1 n=80 v=34
67487 On ch=1 n=80 v=0
67488 On ch=1 n=69 v=34
67535 On ch=1 n=69 v=0
67536 On ch=1 n=70 v=34
67583 On ch=1 n=70 v=0
67584 On ch=1 n=71 v=34
67631 On ch=1 n=71 v=0
67632 On ch=1 n=72 v=34
67679 On ch=1 n=72 v=0
67680 On ch=1 n=73 v=34
67739 On ch=1 n=73 v=0
67740 On ch=1 n=74 v=34
67799 On ch=1 n=74 v=0
67800 On ch=1 n=79 v=34
67839 On ch=1 n=79 v=0
67840 On ch=1 n=77 v=34
67879 On ch=1 n=77 v=0
67880 On ch=1 n=75 v=34
67919 On ch=1 n=75 v=0
67920 On ch=1 n=75 v=34
69359 On ch=1 n=75 v=0
69360 On ch=1 n=75 v=34
70079 On ch=1 n=75 v=0
70080 On ch=1 n=77 v=34
70319 On ch=1 n=77 v=0
70320 On ch=1 n=75 v=34
70559 On ch=1 n=75 v=0
70560 On ch=1 n=77 v=34
70799 On ch=1 n=77 v=0
70800 On ch=1 n=79 v=34
72239 On ch=1 n=79 v=0
72240 On ch=1 n=75 v=34
73079 On ch=1 n=75 v=0
73080 On ch=1 n=77 v=34
73199 On ch=1 n=77 v=0
73200 On ch=1 n=75 v=34
73319 On ch=1 n=75 v=0
73320 On ch=1 n=77 v=34
73439 On ch=1 n=77 v=0
73440 On ch=1 n=75 v=34
73559 On ch=1 n=75 v=0
73560 On ch=1 n=77 v=34
73679 On ch=1 n=77 v=0
73680 On ch=1 n=79 v=34
74159 On ch=1 n=79 v=0
74160 On ch=1 n=77 v=34
74219 On ch=1 n=77 v=0
74220 On ch=1 n=75 v=34
74279 On ch=1 n=75 v=0
74280 On ch=1 n=74 v=34
74339 On ch=1 n=74 v=0
74340 On ch=1 n=75 v=34
74399 On ch=1 n=75 v=0
74400 On ch=1 n=87 v=34
74639 On ch=1 n=87 v=0
74640 On ch=1 n=86 v=34
74879 On ch=1 n=86 v=0
74880 On ch=1 n=84 v=34
75119 On ch=1 n=84 v=0
75120 On ch=1 n=82 v=23
75599 On ch=1 n=82 v=0
75600 On ch=1 n=81 v=23
75839 On ch=1 n=81 v=0
75840 On ch=1 n=80 v=23
76079 On ch=1 n=80 v=0
76080 On ch=1 n=72 v=23
76319 On ch=1 n=72 v=0
76320 On ch=1 n=74 v=23
76559 On ch=1 n=74 v=0
76560 On ch=1 n=75 v=23
76799 On ch=1 n=75 v=0
76800 On ch=1 n=77 v=23
76919 On ch=1 n=77 v=0
76920 On ch=1 n=77 v=23
76920 On ch=1 n=75 v=23
76949 On ch=1 n=77 v=0
76949 On ch=1 n=75 v=0
76950 On ch=1 n=75 v=23
76979 On ch=1 n=75 v=0
76980 On ch=1 n=77 v=23
77009 On ch=1 n=77 v=0
77010 On ch=1 n=75 v=23
77039 On ch=1 n=75 v=0
77040 On ch=1 n=74 v=23
77159 On ch=1 n=74 v=0
77160 On ch=1 n=75 v=23
77219 On ch=1 n=75 v=0
77220 On ch=1 n=75 v=23
77279 On ch=1 n=75 v=0
77280 On ch=1 n=91 v=23
77519 On ch=1 n=91 v=0
77520 On ch=1 n=89 v=23
77639 On ch=1 n=89 v=0
77640 On ch=1 n=87 v=23
77759 On ch=1 n=87 v=0
77760 On ch=1 n=86 v=23
77879 On ch=1 n=86 v=0
77880 On ch=1 n=84 v=23
77999 On ch=1 n=84 v=0
78000 On ch=1 n=83 v=23
78239 On ch=1 n=83 v=0
78240 On ch=1 n=82 v=23
78479 On ch=1 n=82 v=0
78480 On ch=1 n=81 v=23
78719 On ch=1 n=81 v=0
78720 On ch=1 n=81 v=23
78839 On ch=1 n=81 v=0
78840 On ch=1 n=80 v=23
78959 On ch=1 n=80 v=0
78960 On ch=1 n=80 v=23
79079 On ch=1 n=80 v=0
79080 On ch=1 n=77 v=23
79080 On ch=1 n=79 v=23
79199 On ch=1 n=79 v=0
79200 On ch=1 n=79 v=23
79439 On ch=1 n=77 v=0
79439 On ch=1 n=79 v=0
79440 On ch=1 n=75 v=23
80879 On ch=1 n=75 v=0
80880 On ch=1 n=75 v=34
81599 On ch=1 n=75 v=0
81680 On ch=1 n=77 v=34
81759 On ch=1 n=77 v=0
81760 On ch=1 n=75 v=34
81839 On ch=1 n=75 v=0
81840 On ch=1 n=77 v=34
81959 On ch=1 n=77 v=0
81960 On ch=1 n=75 v=34
82079 On ch=1 n=75 v=0
82080 On ch=1 n=77 v=34
82159 On ch=1 n=77 v=0
82160 On ch=1 n=75 v=34
82239 On ch=1 n=75 v=0
82240 On ch=1 n=77 v=34
82319 On ch=1 n=77 v=0
82320 On ch=1 n=79 v=34
83039 On ch=1 n=79 v=0
83760 On ch=1 n=75 v=68
83999 On ch=1 n=75 v=0
84000 On ch=1 n=68 v=68
84119 On ch=1 n=68 v=0
84120 On ch=1 n=70 v=68
84239 On ch=1 n=70 v=0
84240 On ch=1 n=70 v=68
84240 On ch=1 n=68 v=68
84269 On ch=1 n=70 v=0
84269 On ch=1 n=68 v=0
84270 On ch=1 n=68 v=68
84299 On ch=1 n=68 v=0
84300 On ch=1 n=70 v=68
84329 On ch=1 n=70 v=0
84330 On ch=1 n=68 v=68
84359 On ch=1 n=68 v=0
84360 On ch=1 n=67 v=68
84479 On ch=1 n=67 v=0
84480 On ch=1 n=68 v=68
84599 On ch=1 n=68 v=0
84600 On ch=1 n=71 v=68
84719 On ch=1 n=71 v=0
84720 On ch=1 n=75 v=68
84839 On ch=1 n=75 v=0
84840 On ch=1 n=80 v=68
84959 On ch=1 n=80 v=0
84960 On ch=1 n=87 v=68
85140 On ch=1 n=89 v=68
85199 On ch=1 n=89 v=0
85199 On ch=1 n=87 v=0
85200 On ch=1 n=91 v=68
85439 On ch=1 n=91 v=0
85440 On ch=1 n=87 v=68
85679 On ch=1 n=87 v=0
85680 On ch=1 n=99 v=68
85680 On ch=1 n=87 v=68
86159 On ch=1 n=99 v=0
86159 On ch=1 n=87 v=0
86160 On ch=1 n=98 v=68
86160 On ch=1 n=86 v=68
86399 On ch=1 n=98 v=0
86399 On ch=1 n=86 v=0
86400 On ch=1 n=96 v=68
86400 On ch=1 n=84 v=68
86639 On ch=1 n=96 v=0
86639 On ch=1 n=84 v=0
86640 On ch=1 n=95 v=68
86640 On ch=1 n=83 v=68
86879 On ch=1 n=95 v=0
86879 On ch=1 n=83 v=0
86880 On ch=1 n=94 v=68
86880 On ch=1 n=82 v=68
87119 On ch=1 n=94 v=0
87119 On ch=1 n=82 v=0
87120 On ch=1 n=93 v=68
87120 On ch=1 n=81 v=68
87359 On ch=1 n=93 v=0
87359 On ch=1 n=81 v=0
87360 On ch=1 n=92 v=68
87360 On ch=1 n=80 v=68
87599 On ch=1 n=92 v=0
87599 On ch=1 n=80 v=0
87600 On ch=1 n=91 v=68
87600 On ch=1 n=79 v=68
87839 On ch=1 n=91 v=0
87839 On ch=1 n=79 v=0
87840 On ch=1 n=86 v=68
87840 On ch=1 n=74 v=68
88079 On ch=1 n=86 v=0
88079 On ch=1 n=74 v=0
88080 On ch=1 n=87 v=68
88080 On ch=1 n=75 v=68
88319 On ch=1 n=87 v=0
88319 On ch=1 n=75 v=0
88320 On ch=1 n=99 v=68
88320 On ch=1 n=87 v=68
89039 On ch=1 n=99 v=0
89039 On ch=1 n=87 v=0
89040 On ch=1 n=89 v=68
89040 On ch=1 n=77 v=68
89279 On ch=1 n=89 v=0
89279 On ch=1 n=77 v=0
89280 On ch=1 n=96 v=68
89280 On ch=1 n=84 v=68
89519 On ch=1 n=96 v=0
89519 On ch=1 n=84 v=0
89520 On ch=1 n=95 v=79
89520 On ch=1 n=83 v=79
90959 On ch=1 n=95 v=0
90959 On ch=1 n=83 v=0
90960 On ch=1 n=94 v=79
90960 On ch=1 n=82 v=79
92399 On ch=1 n=94 v=0
92399 On ch=1 n=82 v=0
92400 On ch=1 n=95 v=79
92519 On ch=1 n=95 v=0
92520 On ch=1 n=94 v=79
92639 On ch=1 n=94 v=0
92640 On ch=1 n=96 v=79
92759 On ch=1 n=96 v=0
92760 On ch=1 n=93 v=79
92879 On ch=1 n=93 v=0
92880 On ch=1 n=95 v=79
92999 On ch=1 n=95 v=0
93000 On ch=1 n=94 v=79
93119 On ch=1 n=94 v=0
93120 On ch=1 n=96 v=79
93239 On ch=1 n=96 v=0
93240 On ch=1 n=93 v=79
93359 On ch=1 n=93 v=0
93360 On ch=1 n=95 v=79
93479 On ch=1 n=95 v=0
93480 On ch=1 n=94 v=79
93599 On ch=1 n=94 v=0
93600 On ch=1 n=96 v=79
93719 On ch=1 n=96 v=0
93720 On ch=1 n=93 v=79
93839 On ch=1 n=93 v=0
93840 On ch=1 n=95 v=79
93959 On ch=1 n=95 v=0
93960 On ch=1 n=94 v=79
94079 On ch=1 n=94 v=0
94080 On ch=1 n=96 v=79
94199 On ch=1 n=96 v=0
94200 On ch=1 n=93 v=79
94319 On ch=1 n=93 v=0
94320 On ch=1 n=95 v=79
94439 On ch=1 n=95 v=0
94440 On ch=1 n=94 v=79
94559 On ch=1 n=94 v=0
94560 On ch=1 n=96 v=79
94679 On ch=1 n=96 v=0
94680 On ch=1 n=93 v=79
94799 On ch=1 n=93 v=0
94800 On ch=1 n=95 v=79
94919 On ch=1 n=95 v=0
94920 On ch=1 n=94 v=79
95039 On ch=1 n=94 v=0
95040 On ch=1 n=96 v=79
95159 On ch=1 n=96 v=0
95160 On ch=1 n=93 v=79
95279 On ch=1 n=93 v=0
95280 On ch=1 n=95 v=79
95399 On ch=1 n=95 v=0
95400 On ch=1 n=95 v=79
95519 On ch=1 n=95 v=0
95520 On ch=1 n=96 v=79
95639 On ch=1 n=96 v=0
95640 On ch=1 n=93 v=79
95759 On ch=1 n=93 v=0
95760 On ch=1 n=95 v=79
95879 On ch=1 n=95 v=0
95880 On ch=1 n=95 v=79
95999 On ch=1 n=95 v=0
96000 On ch=1 n=96 v=79
96119 On ch=1 n=96 v=0
96120 On ch=1 n=93 v=79
96239 On ch=1 n=93 v=0
96240 On ch=1 n=95 v=79
96359 On ch=1 n=95 v=0
96360 On ch=1 n=95 v=79
96479 On ch=1 n=95 v=0
96480 On ch=1 n=96 v=79
96599 On ch=1 n=96 v=0
96600 On ch=1 n=93 v=79
96719 On ch=1 n=93 v=0
96720 On ch=1 n=95 v=79
96839 On ch=1 n=95 v=0
96840 On ch=1 n=95 v=79
96959 On ch=1 n=95 v=0
96960 On ch=1 n=96 v=79
97079 On ch=1 n=96 v=0
97080 On ch=1 n=93 v=79
97199 On ch=1 n=93 v=0
97200 On ch=1 n=95 v=79
97319 On ch=1 n=95 v=0
97320 On ch=1 n=95 v=79
97439 On ch=1 n=95 v=0
97440 On ch=1 n=96 v=79
97559 On ch=1 n=96 v=0
97560 On ch=1 n=93 v=79
97679 On ch=1 n=93 v=0
97680 On ch=1 n=95 v=79
97799 On ch=1 n=95 v=0
97800 On ch=1 n=95 v=79
97919 On ch=1 n=95 v=0
97920 On ch=1 n=96 v=79
98039 On ch=1 n=96 v=0
98040 On ch=1 n=93 v=79
98159 On ch=1 n=93 v=0
98160 TimeSig 10/8 24 8
98160 On ch=1 n=95 v=70
98279 On ch=1 n=95 v=0
98280 On ch=1 n=95 v=67
98399 On ch=1 n=95 v=0
98400 On ch=1 n=98 v=63
98519 On ch=1 n=98 v=0
98520 On ch=1 n=96 v=60
98639 On ch=1 n=96 v=0
98640 On ch=1 n=95 v=59
98759 On ch=1 n=95 v=0
98760 On ch=1 n=92 v=56
98879 On ch=1 n=92 v=0
98880 On ch=1 n=92 v=54
98999 On ch=1 n=92 v=0
99000 On ch=1 n=91 v=53
99119 On ch=1 n=91 v=0
99120 On ch=1 n=89 v=50
99239 On ch=1 n=89 v=0
99240 On ch=1 n=86 v=46
99359 On ch=1 n=86 v=0
99360 On ch=1 n=87 v=42
99479 On ch=1 n=87 v=0
99480 On ch=1 n=84 v=36
99599 On ch=1 n=84 v=0
99600 On ch=1 n=82 v=32
99839 On ch=1 n=82 v=0
99840 On ch=1 n=80 v=27
100079 On ch=1 n=80 v=0
100080 On ch=1 n=72 v=20
100319 On ch=1 n=72 v=0
100320 On ch=1 n=74 v=14
100559 On ch=1 n=74 v=0
100560 TimeSig 12/8 24 8
100560 On ch=1 n=75 v=23
100560 On ch=1 n=67 v=23
100799 On ch=1 n=75 v=0
100799 On ch=1 n=67 v=0
100800 On ch=1 n=70 v=23
101039 On ch=1 n=70 v=0
101040 On ch=1 n=79 v=23
101279 On ch=1 n=79 v=0
101280 On ch=1 n=75 v=23
101280 On ch=1 n=67 v=23
101519 On ch=1 n=75 v=0
101519 On ch=1 n=67 v=0
101520 On ch=1 n=70 v=23
101759 On ch=1 n=70 v=0
101760 On ch=1 n=79 v=23
101999 On ch=1 n=79 v=0
102000 On ch=1 n=75 v=23
102000 On ch=1 n=67 v=23
102239 On ch=1 n=75 v=0
102239 On ch=1 n=67 v=0
102240 On ch=1 n=70 v=23
102479 On ch=1 n=70 v=0
102480 On ch=1 n=79 v=23
102719 On ch=1 n=79 v=0
102720 On ch=1 n=75 v=23
102720 On ch=1 n=67 v=23
102959 On ch=1 n=75 v=0
102959 On ch=1 n=67 v=0
102960 On ch=1 n=70 v=23
103199 On ch=1 n=70 v=0
103200 On ch=1 n=79 v=23
103439 On ch=1 n=79 v=0
103440 On ch=1 n=75 v=11
103440 On ch=1 n=67 v=11
104159 On ch=1 n=75 v=0
104159 On ch=1 n=67 v=0
104160 On ch=1 n=87 v=11
104160 On ch=1 n=79 v=11
104879 On ch=1 n=87 v=0
104879 On ch=1 n=79 v=0
104880 On ch=1 n=63 v=11
104880 On ch=1 n=55 v=11
106319 On ch=1 n=63 v=0
106319 On ch=1 n=55 v=0
106320 Meta TrkEnd
TrkEnd
MTrk
0 KeySig 253 major
0 PrCh ch=2 p=0
2 Par ch=2 c=7 v=100
4 Par ch=2 c=10 v=64
6 Par ch=2 c=91 v=30
8 Par ch=2 c=93 v=30
240 On ch=2 n=39 v=34
479 On ch=2 n=39 v=0
480 On ch=2 n=63 v=34
480 On ch=2 n=55 v=34
719 On ch=2 n=63 v=0
719 On ch=2 n=55 v=0
720 On ch=2 n=67 v=34
720 On ch=2 n=63 v=34
720 On ch=2 n=58 v=34
959 On ch=2 n=67 v=0
959 On ch=2 n=63 v=0
959 On ch=2 n=58 v=0
960 On ch=2 n=51 v=34
1199 On ch=2 n=51 v=0
1200 On ch=2 n=62 v=34
1200 On ch=2 n=56 v=34
1439 On ch=2 n=62 v=0
1439 On ch=2 n=56 v=0
1440 On ch=2 n=68 v=34
1440 On ch=2 n=62 v=34
1440 On ch=2 n=59 v=34
1679 On ch=2 n=68 v=0
1679 On ch=2 n=62 v=0
1679 On ch=2 n=59 v=0
1680 On ch=2 n=39 v=34
1919 On ch=2 n=39 v=0
1920 On ch=2 n=63 v=34
1920 On ch=2 n=55 v=34
2159 On ch=2 n=63 v=0
2159 On ch=2 n=55 v=0
2160 On ch=2 n=67 v=34
2160 On ch=2 n=63 v=34
2160 On ch=2 n=58 v=34
2399 On ch=2 n=67 v=0
2399 On ch=2 n=63 v=0
2399 On ch=2 n=58 v=0
2400 On ch=2 n=38 v=34
2639 On ch=2 n=38 v=0
2640 On ch=2 n=63 v=34
2640 On ch=2 n=55 v=34
2879 On ch=2 n=63 v=0
2879 On ch=2 n=55 v=0
2880 On ch=2 n=67 v=34
2880 On ch=2 n=63 v=34
2880 On ch=2 n=58 v=34
3119 On ch=2 n=67 v=0
3119 On ch=2 n=63 v=0
3119 On ch=2 n=58 v=0
3120 On ch=2 n=36 v=34
3359 On ch=2 n=36 v=0
3360 On ch=2 n=64 v=34
3360 On ch=2 n=55 v=34
3599 On ch=2 n=64 v=0
3599 On ch=2 n=55 v=0
3600 On ch=2 n=67 v=34
3600 On ch=2 n=64 v=34
3600 On ch=2 n=58 v=34
3839 On ch=2 n=67 v=0
3839 On ch=2 n=64 v=0
3839 On ch=2 n=58 v=0
3840 On ch=2 n=48 v=34
4079 On ch=2 n=48 v=0
4080 On ch=2 n=64 v=34
4080 On ch=2 n=56 v=34
4319 On ch=2 n=64 v=0
4319 On ch=2 n=56 v=0
4320 On ch=2 n=70 v=34
4320 On ch=2 n=64 v=34
4320 On ch=2 n=60 v=34
4559 On ch=2 n=70 v=0
4559 On ch=2 n=64 v=0
4559 On ch=2 n=60 v=0
4560 On ch=2 n=41 v=34
4799 On ch=2 n=41 v=0
4800 On ch=2 n=61 v=34
4800 On ch=2 n=53 v=34
5039 On ch=2 n=61 v=0
5039 On ch=2 n=53 v=0
5040 On ch=2 n=64 v=34
5040 On ch=2 n=61 v=34
5040 On ch=2 n=58 v=34
5279 On ch=2 n=64 v=0
5279 On ch=2 n=61 v=0
5279 On ch=2 n=58 v=0
5280 On ch=2 n=41 v=34
5519 On ch=2 n=41 v=0
5520 On ch=2 n=60 v=34
5520 On ch=2 n=53 v=34
5759 On ch=2 n=60 v=0
5759 On ch=2 n=53 v=0
5760 On ch=2 n=65 v=34
5760 On ch=2 n=60 v=34
5760 On ch=2 n=56 v=34
5999 On ch=2 n=65 v=0
5999 On ch=2 n=60 v=0
5999 On ch=2 n=56 v=0
6000 On ch=2 n=46 v=34
6239 On ch=2 n=46 v=0
6240 On ch=2 n=62 v=34
6240 On ch=2 n=53 v=34
6479 On ch=2 n=62 v=0
6479 On ch=2 n=53 v=0
6480 On ch=2 n=68 v=34
6480 On ch=2 n=62 v=34
6480 On ch=2 n=58 v=34
6719 On ch=2 n=68 v=0
6719 On ch=2 n=62 v=0
6719 On ch=2 n=58 v=0
6720 On ch=2 n=47 v=34
6959 On ch=2 n=47 v=0
6960 On ch=2 n=65 v=34
6960 On ch=2 n=55 v=34
7199 On ch=2 n=65 v=0
7199 On ch=2 n=55 v=0
7200 On ch=2 n=67 v=34
7200 On ch=2 n=65 v=34
7200 On ch=2 n=62 v=34
7439 On ch=2 n=67 v=0
7439 On ch=2 n=65 v=0
7439 On ch=2 n=62 v=0
7440 On ch=2 n=48 v=34
7679 On ch=2 n=48 v=0
7680 On ch=2 n=63 v=34
7680 On ch=2 n=55 v=34
7919 On ch=2 n=63 v=0
7919 On ch=2 n=55 v=0
7920 On ch=2 n=67 v=34
7920 On ch=2 n=63 v=34
7920 On ch=2 n=60 v=34
8159 On ch=2 n=67 v=0
8159 On ch=2 n=63 v=0
8159 On ch=2 n=60 v=0
8160 On ch=2 n=45 v=34
8399 On ch=2 n=45 v=0
8400 On ch=2 n=63 v=34
8400 On ch=2 n=54 v=34
8639 On ch=2 n=63 v=0
8639 On ch=2 n=54 v=0
8640 On ch=2 n=66 v=34
8640 On ch=2 n=63 v=34
8640 On ch=2 n=60 v=34
8879 On ch=2 n=66 v=0
8879 On ch=2 n=63 v=0
8879 On ch=2 n=60 v=0
8880 On ch=2 n=46 v=68
9119 On ch=2 n=46 v=0
9120 On ch=2 n=63 v=68
9120 On ch=2 n=53 v=68
9359 On ch=2 n=63 v=0
9359 On ch=2 n=53 v=0
9360 On ch=2 n=68 v=68
9360 On ch=2 n=63 v=68
9360 On ch=2 n=58 v=68
9599 On ch=2 n=68 v=0
9599 On ch=2 n=63 v=0
9599 On ch=2 n=58 v=0
9600 On ch=2 n=34 v=68
9839 On ch=2 n=34 v=0
9840 On ch=2 n=62 v=68
9840 On ch=2 n=53 v=68
10079 On ch=2 n=62 v=0
10079 On ch=2 n=53 v=0
10080 On ch=2 n=68 v=68
10080 On ch=2 n=58 v=68
10319 On ch=2 n=68 v=0
10319 On ch=2 n=58 v=0
10320 On ch=2 n=39 v=68
10559 On ch=2 n=39 v=0
10560 On ch=2 n=63 v=68
10560 On ch=2 n=55 v=68
10799 On ch=2 n=63 v=0
10799 On ch=2 n=55 v=0
10800 On ch=2 n=67 v=68
10800 On ch=2 n=63 v=68
10800 On ch=2 n=58 v=68
11039 On ch=2 n=67 v=0
11039 On ch=2 n=63 v=0
11039 On ch=2 n=58 v=0
11040 On ch=2 n=51 v=68
11279 On ch=2 n=51 v=0
11280 On ch=2 n=63 v=68
11280 On ch=2 n=55 v=68
11519 On ch=2 n=63 v=0
11519 On ch=2 n=55 v=0
11520 On ch=2 n=67 v=34
11520 On ch=2 n=63 v=34
11520 On ch=2 n=58 v=34
11759 On ch=2 n=67 v=0
11759 On ch=2 n=63 v=0
11759 On ch=2 n=58 v=0
11760 On ch=2 n=51 v=34
11999 On ch=2 n=51 v=0
12000 On ch=2 n=63 v=34
12000 On ch=2 n=55 v=34
12239 On ch=2 n=63 v=0
12239 On ch=2 n=55 v=0
12240 On ch=2 n=67 v=34
12240 On ch=2 n=63 v=34
12240 On ch=2 n=58 v=34
12479 On ch=2 n=67 v=0
12479 On ch=2 n=63 v=0
12479 On ch=2 n=58 v=0
12480 On ch=2 n=51 v=34
12719 On ch=2 n=51 v=0
12720 On ch=2 n=62 v=34
12720 On ch=2 n=56 v=34
12959 On ch=2 n=62 v=0
12959 On ch=2 n=56 v=0
12960 On ch=2 n=68 v=34
12960 On ch=2 n=62 v=34
12960 On ch=2 n=59 v=34
13199 On ch=2 n=68 v=0
13199 On ch=2 n=62 v=0
13199 On ch=2 n=59 v=0
13200 On ch=2 n=51 v=34
13439 On ch=2 n=51 v=0
13440 On ch=2 n=63 v=34
13440 On ch=2 n=55 v=34
13679 On ch=2 n=63 v=0
13679 On ch=2 n=55 v=0
13680 On ch=2 n=67 v=34
13680 On ch=2 n=63 v=34
13680 On ch=2 n=58 v=34
13919 On ch=2 n=67 v=0
13919 On ch=2 n=63 v=0
13919 On ch=2 n=58 v=0
13920 On ch=2 n=50 v=34
14159 On ch=2 n=50 v=0
14160 On ch=2 n=63 v=34
14160 On ch=2 n=55 v=34
14399 On ch=2 n=63 v=0
14399 On ch=2 n=55 v=0
14400 On ch=2 n=67 v=34
14400 On ch=2 n=63 v=34
14400 On ch=2 n=58 v=34
14639 On ch=2 n=67 v=0
14639 On ch=2 n=63 v=0
14639 On ch=2 n=58 v=0
14640 On ch=2 n=48 v=34
14879 On ch=2 n=48 v=0
14880 On ch=2 n=64 v=34
14880 On ch=2 n=55 v=34
15119 On ch=2 n=64 v=0
15119 On ch=2 n=55 v=0
15120 On ch=2 n=67 v=34
15120 On ch=2 n=64 v=34
15120 On ch=2 n=58 v=34
15359 On ch=2 n=67 v=0
15359 On ch=2 n=64 v=0
15359 On ch=2 n=58 v=0
15360 On ch=2 n=48 v=34
15599 On ch=2 n=48 v=0
15600 On ch=2 n=64 v=34
15600 On ch=2 n=55 v=34
15839 On ch=2 n=64 v=0
15839 On ch=2 n=55 v=0
15840 On ch=2 n=70 v=34
15840 On ch=2 n=64 v=34
15840 On ch=2 n=60 v=34
16079 On ch=2 n=70 v=0
16079 On ch=2 n=64 v=0
16079 On ch=2 n=60 v=0
16080 On ch=2 n=41 v=34
16319 On ch=2 n=41 v=0
16320 On ch=2 n=61 v=34
16320 On ch=2 n=53 v=34
16559 On ch=2 n=61 v=0
16559 On ch=2 n=53 v=0
16560 On ch=2 n=64 v=34
16560 On ch=2 n=61 v=34
16560 On ch=2 n=58 v=34
16799 On ch=2 n=64 v=0
16799 On ch=2 n=61 v=0
16799 On ch=2 n=58 v=0
16800 On ch=2 n=41 v=34
17039 On ch=2 n=41 v=0
17040 On ch=2 n=60 v=34
17040 On ch=2 n=53 v=34
17279 On ch=2 n=60 v=0
17279 On ch=2 n=53 v=0
17280 On ch=2 n=65 v=34
17280 On ch=2 n=60 v=34
17280 On ch=2 n=56 v=34
17519 On ch=2 n=65 v=0
17519 On ch=2 n=60 v=0
17519 On ch=2 n=56 v=0
17520 On ch=2 n=46 v=34
17759 On ch=2 n=46 v=0
17760 On ch=2 n=62 v=34
17760 On ch=2 n=53 v=34
17999 On ch=2 n=62 v=0
17999 On ch=2 n=53 v=0
18000 On ch=2 n=68 v=34
18000 On ch=2 n=62 v=34
18000 On ch=2 n=58 v=34
18239 On ch=2 n=68 v=0
18239 On ch=2 n=62 v=0
18239 On ch=2 n=58 v=0
18240 On ch=2 n=47 v=34
18479 On ch=2 n=47 v=0
18480 On ch=2 n=65 v=34
18480 On ch=2 n=55 v=34
18719 On ch=2 n=65 v=0
18719 On ch=2 n=55 v=0
18720 On ch=2 n=67 v=34
18720 On ch=2 n=65 v=34
18720 On ch=2 n=62 v=34
18959 On ch=2 n=67 v=0
18959 On ch=2 n=65 v=0
18959 On ch=2 n=62 v=0
18960 On ch=2 n=48 v=34
19199 On ch=2 n=48 v=0
19200 On ch=2 n=63 v=34
19200 On ch=2 n=55 v=34
19439 On ch=2 n=63 v=0
19439 On ch=2 n=55 v=0
19440 On ch=2 n=67 v=34
19440 On ch=2 n=63 v=34
19440 On ch=2 n=60 v=34
19679 On ch=2 n=67 v=0
19679 On ch=2 n=63 v=0
19679 On ch=2 n=60 v=0
19680 On ch=2 n=45 v=34
19919 On ch=2 n=45 v=0
19920 On ch=2 n=63 v=34
19920 On ch=2 n=54 v=34
20159 On ch=2 n=63 v=0
20159 On ch=2 n=54 v=0
20160 On ch=2 n=66 v=34
20160 On ch=2 n=63 v=34
20160 On ch=2 n=60 v=34
20399 On ch=2 n=66 v=0
20399 On ch=2 n=63 v=0
20399 On ch=2 n=60 v=0
20400 On ch=2 n=46 v=34
20639 On ch=2 n=46 v=0
20640 On ch=2 n=63 v=34
20640 On ch=2 n=53 v=34
20879 On ch=2 n=63 v=0
20879 On ch=2 n=53 v=0
20880 On ch=2 n=68 v=34
20880 On ch=2 n=63 v=34
20880 On ch=2 n=58 v=34
21119 On ch=2 n=68 v=0
21119 On ch=2 n=63 v=0
21119 On ch=2 n=58 v=0
21120 On ch=2 n=34 v=34
21359 On ch=2 n=34 v=0
21360 On ch=2 n=62 v=34
21360 On ch=2 n=53 v=34
21599 On ch=2 n=62 v=0
21599 On ch=2 n=53 v=0
21600 On ch=2 n=68 v=34
21600 On ch=2 n=58 v=34
21839 On ch=2 n=68 v=0
21839 On ch=2 n=58 v=0
21840 On ch=2 n=39 v=34
22079 On ch=2 n=39 v=0
22080 On ch=2 n=63 v=34
22080 On ch=2 n=55 v=34
22319 On ch=2 n=63 v=0
22319 On ch=2 n=55 v=0
22320 On ch=2 n=67 v=34
22320 On ch=2 n=63 v=34
22320 On ch=2 n=58 v=34
22559 On ch=2 n=67 v=0
22559 On ch=2 n=63 v=0
22559 On ch=2 n=58 v=0
22560 On ch=2 n=51 v=34
22799 On ch=2 n=51 v=0
22800 On ch=2 n=63 v=34
22800 On ch=2 n=55 v=34
23039 On ch=2 n=63 v=0
23039 On ch=2 n=55 v=0
23040 On ch=2 n=67 v=34
23040 On ch=2 n=63 v=34
23040 On ch=2 n=58 v=34
23279 On ch=2 n=67 v=0
23279 On ch=2 n=63 v=0
23279 On ch=2 n=58 v=0
23280 On ch=2 n=46 v=34
23519 On ch=2 n=46 v=0
23520 On ch=2 n=62 v=34
23520 On ch=2 n=53 v=34
23759 On ch=2 n=62 v=0
23759 On ch=2 n=53 v=0
23760 On ch=2 n=65 v=34
23760 On ch=2 n=62 v=34
23760 On ch=2 n=58 v=34
23999 On ch=2 n=65 v=0
23999 On ch=2 n=62 v=0
23999 On ch=2 n=58 v=0
24000 On ch=2 n=46 v=34
24239 On ch=2 n=46 v=0
24240 On ch=2 n=62 v=34
24240 On ch=2 n=53 v=34
24479 On ch=2 n=62 v=0
24479 On ch=2 n=53 v=0
24480 On ch=2 n=65 v=34
24480 On ch=2 n=62 v=34
24480 On ch=2 n=58 v=34
24719 On ch=2 n=65 v=0
24719 On ch=2 n=62 v=0
24719 On ch=2 n=58 v=0
24720 On ch=2 n=45 v=23
24959 On ch=2 n=45 v=0
24960 On ch=2 n=60 v=23
24960 On ch=2 n=53 v=23
25199 On ch=2 n=60 v=0
25199 On ch=2 n=53 v=0
25200 On ch=2 n=65 v=23
25200 On ch=2 n=60 v=23
25439 On ch=2 n=65 v=0
25439 On ch=2 n=60 v=0
25440 On ch=2 n=45 v=23
25679 On ch=2 n=45 v=0
25680 On ch=2 n=60 v=23
25680 On ch=2 n=53 v=23
25919 On ch=2 n=60 v=0
25919 On ch=2 n=53 v=0
25920 On ch=2 n=65 v=23
25920 On ch=2 n=60 v=23
26159 On ch=2 n=65 v=0
26159 On ch=2 n=60 v=0
26160 On ch=2 n=44 v=23
26399 On ch=2 n=44 v=0
26400 On ch=2 n=60 v=23
26400 On ch=2 n=51 v=23
26639 On ch=2 n=60 v=0
26639 On ch=2 n=51 v=0
26640 On ch=2 n=63 v=23
26640 On ch=2 n=60 v=23
26640 On ch=2 n=56 v=23
26879 On ch=2 n=63 v=0
26879 On ch=2 n=60 v=0
26879 On ch=2 n=56 v=0
26880 On ch=2 n=32 v=23
27119 On ch=2 n=32 v=0
27120 On ch=2 n=59 v=23
27120 On ch=2 n=51 v=23
27359 On ch=2 n=59 v=0
27359 On ch=2 n=51 v=0
27360 On ch=2 n=63 v=23
27360 On ch=2 n=60 v=23
27360 On ch=2 n=56 v=23
27599 On ch=2 n=63 v=0
27599 On ch=2 n=60 v=0
27599 On ch=2 n=56 v=0
27600 On ch=2 n=39 v=23
27839 On ch=2 n=39 v=0
27840 On ch=2 n=63 v=23
27840 On ch=2 n=55 v=23
28079 On ch=2 n=63 v=0
28079 On ch=2 n=55 v=0
28080 On ch=2 n=67 v=23
28080 On ch=2 n=63 v=23
28080 On ch=2 n=58 v=23
28319 On ch=2 n=67 v=0
28319 On ch=2 n=63 v=0
28319 On ch=2 n=58 v=0
28320 On ch=2 n=51 v=23
28559 On ch=2 n=51 v=0
28560 On ch=2 n=63 v=23
28560 On ch=2 n=55 v=23
28799 On ch=2 n=63 v=0
28799 On ch=2 n=55 v=0
28800 On ch=2 n=67 v=23
28800 On ch=2 n=63 v=23
28800 On ch=2 n=58 v=23
29039 On ch=2 n=67 v=0
29039 On ch=2 n=63 v=0
29039 On ch=2 n=58 v=0
29040 On ch=2 n=40 v=68
29279 On ch=2 n=40 v=0
29280 On ch=2 n=61 v=68
29280 On ch=2 n=52 v=68
29519 On ch=2 n=61 v=0
29519 On ch=2 n=52 v=0
29520 On ch=2 n=67 v=68
29520 On ch=2 n=61 v=68
29520 On ch=2 n=58 v=68
29759 On ch=2 n=67 v=0
29759 On ch=2 n=61 v=0
29759 On ch=2 n=58 v=0
29760 On ch=2 n=40 v=68
29999 On ch=2 n=40 v=0
30000 On ch=2 n=60 v=68
30000 On ch=2 n=52 v=68
30239 On ch=2 n=60 v=0
30239 On ch=2 n=52 v=0
30240 On ch=2 n=67 v=68
30240 On ch=2 n=60 v=68
30240 On ch=2 n=58 v=68
30479 On ch=2 n=67 v=0
30479 On ch=2 n=60 v=0
30479 On ch=2 n=58 v=0
30480 On ch=2 n=41 v=68
30719 On ch=2 n=41 v=0
30720 On ch=2 n=63 v=68
30720 On ch=2 n=53 v=68
30959 On ch=2 n=63 v=0
30959 On ch=2 n=53 v=0
30960 On ch=2 n=69 v=68
30960 On ch=2 n=63 v=68
30960 On ch=2 n=60 v=68
31199 On ch=2 n=69 v=0
31199 On ch=2 n=63 v=0
31199 On ch=2 n=60 v=0
31200 On ch=2 n=43 v=68
31439 On ch=2 n=43 v=0
31440 On ch=2 n=62 v=68
31440 On ch=2 n=55 v=68
31679 On ch=2 n=62 v=0
31679 On ch=2 n=55 v=0
31680 On ch=2 n=70 v=68
31680 On ch=2 n=62 v=68
31680 On ch=2 n=58 v=68
31919 On ch=2 n=70 v=0
31919 On ch=2 n=62 v=0
31919 On ch=2 n=58 v=0
31920 On ch=2 n=36 v=68
32159 On ch=2 n=36 v=0
32160 On ch=2 n=63 v=68
32160 On ch=2 n=55 v=68
32399 On ch=2 n=63 v=0
32399 On ch=2 n=55 v=0
32400 On ch=2 n=67 v=68
32400 On ch=2 n=63 v=68
32400 On ch=2 n=60 v=68
32639 On ch=2 n=67 v=0
32639 On ch=2 n=63 v=0
32639 On ch=2 n=60 v=0
32640 On ch=2 n=41 v=68
32879 On ch=2 n=41 v=0
32880 On ch=2 n=63 v=68
32880 On ch=2 n=53 v=68
33119 On ch=2 n=63 v=0
33119 On ch=2 n=53 v=0
33120 On ch=2 n=65 v=68
33120 On ch=2 n=63 v=68
33120 On ch=2 n=60 v=68
33359 On ch=2 n=65 v=0
33359 On ch=2 n=63 v=0
33359 On ch=2 n=60 v=0
33360 On ch=2 n=62 v=68
33360 On ch=2 n=58 v=68
33599 On ch=2 n=62 v=0
33599 On ch=2 n=58 v=0
33600 On ch=2 n=63 v=68
33600 On ch=2 n=57 v=68
33839 On ch=2 n=63 v=0
33839 On ch=2 n=57 v=0
33840 On ch=2 n=56 v=68
34079 On ch=2 n=56 v=0
34080 On ch=2 n=55 v=68
34319 On ch=2 n=55 v=0
34320 On ch=2 n=63 v=68
34320 On ch=2 n=60 v=68
34320 On ch=2 n=53 v=68
34559 On ch=2 n=63 v=0
34559 On ch=2 n=60 v=0
34559 On ch=2 n=53 v=0
34560 On ch=2 n=65 v=68
34560 On ch=2 n=58 v=68
34799 On ch=2 n=65 v=0
34799 On ch=2 n=58 v=0
34800 On ch=2 n=39 v=34
35039 On ch=2 n=39 v=0
35040 On ch=2 n=63 v=34
35040 On ch=2 n=55 v=34
35279 On ch=2 n=63 v=0
35279 On ch=2 n=55 v=0
35280 On ch=2 n=67 v=34
35280 On ch=2 n=63 v=34
35280 On ch=2 n=58 v=34
35519 On ch=2 n=67 v=0
35519 On ch=2 n=63 v=0
35519 On ch=2 n=58 v=0
35520 On ch=2 n=51 v=34
35759 On ch=2 n=51 v=0
35760 On ch=2 n=62 v=34
35760 On ch=2 n=56 v=34
35999 On ch=2 n=62 v=0
35999 On ch=2 n=56 v=0
36000 On ch=2 n=68 v=34
36000 On ch=2 n=62 v=34
36000 On ch=2 n=58 v=34
36239 On ch=2 n=68 v=0
36239 On ch=2 n=62 v=0
36239 On ch=2 n=58 v=0
36240 On ch=2 n=51 v=34
36479 On ch=2 n=51 v=0
36480 On ch=2 n=63 v=34
36480 On ch=2 n=55 v=34
36719 On ch=2 n=63 v=0
36719 On ch=2 n=55 v=0
36720 On ch=2 n=67 v=34
36720 On ch=2 n=63 v=34
36720 On ch=2 n=58 v=34
36959 On ch=2 n=67 v=0
36959 On ch=2 n=63 v=0
36959 On ch=2 n=58 v=0
36960 On ch=2 n=50 v=34
37199 On ch=2 n=50 v=0
37200 On ch=2 n=63 v=34
37200 On ch=2 n=55 v=34
37439 On ch=2 n=63 v=0
37439 On ch=2 n=55 v=0
37440 On ch=2 n=67 v=34
37440 On ch=2 n=63 v=34
37440 On ch=2 n=58 v=34
37679 On ch=2 n=67 v=0
37679 On ch=2 n=63 v=0
37679 On ch=2 n=58 v=0
37680 On ch=2 n=48 v=34
37919 On ch=2 n=48 v=0
37920 On ch=2 n=64 v=34
37920 On ch=2 n=55 v=34
38159 On ch=2 n=64 v=0
38159 On ch=2 n=55 v=0
38160 On ch=2 n=67 v=34
38160 On ch=2 n=64 v=34
38160 On ch=2 n=58 v=34
38399 On ch=2 n=67 v=0
38399 On ch=2 n=64 v=0
38399 On ch=2 n=58 v=0
38400 On ch=2 n=48 v=34
38639 On ch=2 n=48 v=0
38640 On ch=2 n=64 v=34
38640 On ch=2 n=55 v=34
38879 On ch=2 n=64 v=0
38879 On ch=2 n=55 v=0
38880 On ch=2 n=70 v=34
38880 On ch=2 n=64 v=34
38880 On ch=2 n=60 v=34
39119 On ch=2 n=70 v=0
39119 On ch=2 n=64 v=0
39119 On ch=2 n=60 v=0
39120 On ch=2 n=41 v=34
39359 On ch=2 n=41 v=0
39360 On ch=2 n=61 v=34
39360 On ch=2 n=53 v=34
39599 On ch=2 n=61 v=0
39599 On ch=2 n=53 v=0
39600 On ch=2 n=64 v=34
39600 On ch=2 n=61 v=34
39600 On ch=2 n=58 v=34
39839 On ch=2 n=64 v=0
39839 On ch=2 n=61 v=0
39839 On ch=2 n=58 v=0
39840 On ch=2 n=41 v=34
40079 On ch=2 n=41 v=0
40080 On ch=2 n=60 v=34
40080 On ch=2 n=53 v=34
40319 On ch=2 n=60 v=0
40319 On ch=2 n=53 v=0
40320 On ch=2 n=65 v=34
40320 On ch=2 n=60 v=34
40320 On ch=2 n=56 v=34
40559 On ch=2 n=65 v=0
40559 On ch=2 n=60 v=0
40559 On ch=2 n=56 v=0
40560 On ch=2 n=46 v=34
40799 On ch=2 n=46 v=0
40800 On ch=2 n=62 v=34
40800 On ch=2 n=53 v=34
41039 On ch=2 n=62 v=0
41039 On ch=2 n=53 v=0
41040 On ch=2 n=68 v=34
41040 On ch=2 n=62 v=34
41040 On ch=2 n=58 v=34
41279 On ch=2 n=68 v=0
41279 On ch=2 n=62 v=0
41279 On ch=2 n=58 v=0
41280 On ch=2 n=47 v=34
41519 On ch=2 n=47 v=0
41520 On ch=2 n=65 v=34
41520 On ch=2 n=55 v=34
41759 On ch=2 n=65 v=0
41759 On ch=2 n=55 v=0
41760 On ch=2 n=67 v=34
41760 On ch=2 n=65 v=34
41760 On ch=2 n=62 v=34
41999 On ch=2 n=67 v=0
41999 On ch=2 n=65 v=0
41999 On ch=2 n=62 v=0
42000 On ch=2 n=48 v=34
42239 On ch=2 n=48 v=0
42240 On ch=2 n=63 v=34
42240 On ch=2 n=55 v=34
42479 On ch=2 n=63 v=0
42479 On ch=2 n=55 v=0
42480 On ch=2 n=67 v=34
42480 On ch=2 n=63 v=34
42480 On ch=2 n=60 v=34
42719 On ch=2 n=67 v=0
42719 On ch=2 n=63 v=0
42719 On ch=2 n=60 v=0
42720 On ch=2 n=45 v=34
42959 On ch=2 n=45 v=0
42960 On ch=2 n=63 v=34
42960 On ch=2 n=54 v=34
43199 On ch=2 n=63 v=0
43199 On ch=2 n=54 v=0
43200 On ch=2 n=66 v=34
43200 On ch=2 n=63 v=34
43200 On ch=2 n=60 v=34
43439 On ch=2 n=66 v=0
43439 On ch=2 n=63 v=0
43439 On ch=2 n=60 v=0
43440 On ch=2 n=46 v=34
43679 On ch=2 n=46 v=0
43680 On ch=2 n=63 v=34
43680 On ch=2 n=53 v=34
43919 On ch=2 n=63 v=0
43919 On ch=2 n=53 v=0
43920 On ch=2 n=68 v=34
43920 On ch=2 n=63 v=34
43920 On ch=2 n=58 v=34
44159 On ch=2 n=68 v=0
44159 On ch=2 n=63 v=0
44159 On ch=2 n=58 v=0
44160 On ch=2 n=34 v=34
44399 On ch=2 n=34 v=0
44400 On ch=2 n=62 v=34
44400 On ch=2 n=53 v=34
44639 On ch=2 n=62 v=0
44639 On ch=2 n=53 v=0
44640 On ch=2 n=68 v=34
44640 On ch=2 n=62 v=34
44640 On ch=2 n=58 v=34
44879 On ch=2 n=68 v=0
44879 On ch=2 n=62 v=0
44879 On ch=2 n=58 v=0
44880 On ch=2 n=39 v=34
45119 On ch=2 n=39 v=0
45120 On ch=2 n=63 v=34
45120 On ch=2 n=55 v=34
45359 On ch=2 n=63 v=0
45359 On ch=2 n=55 v=0
45360 On ch=2 n=67 v=34
45360 On ch=2 n=58 v=34
45599 On ch=2 n=67 v=0
45599 On ch=2 n=58 v=0
45600 On ch=2 n=51 v=34
45839 On ch=2 n=51 v=0
45840 On ch=2 n=63 v=34
45840 On ch=2 n=55 v=34
46079 On ch=2 n=63 v=0
46079 On ch=2 n=55 v=0
46080 On ch=2 n=67 v=34
46080 On ch=2 n=58 v=34
46319 On ch=2 n=67 v=0
46319 On ch=2 n=58 v=0
46320 On ch=2 n=46 v=34
46559 On ch=2 n=46 v=0
46560 On ch=2 n=62 v=34
46560 On ch=2 n=53 v=34
46799 On ch=2 n=62 v=0
46799 On ch=2 n=53 v=0
46800 On ch=2 n=65 v=34
46800 On ch=2 n=62 v=34
46800 On ch=2 n=58 v=34
47039 On ch=2 n=65 v=0
47039 On ch=2 n=62 v=0
47039 On ch=2 n=58 v=0
47040 On ch=2 n=46 v=34
47279 On ch=2 n=46 v=0
47280 On ch=2 n=62 v=34
47280 On ch=2 n=53 v=34
47519 On ch=2 n=62 v=0
47519 On ch=2 n=53 v=0
47520 On ch=2 n=65 v=34
47520 On ch=2 n=62 v=34
47520 On ch=2 n=58 v=34
47759 On ch=2 n=65 v=0
47759 On ch=2 n=62 v=0
47759 On ch=2 n=58 v=0
47760 On ch=2 n=45 v=34
47999 On ch=2 n=45 v=0
48000 On ch=2 n=60 v=34
48000 On ch=2 n=53 v=34
48239 On ch=2 n=60 v=0
48239 On ch=2 n=53 v=0
48240 On ch=2 n=65 v=34
48240 On ch=2 n=60 v=34
48479 On ch=2 n=65 v=0
48479 On ch=2 n=60 v=0
48480 On ch=2 n=45 v=34
48719 On ch=2 n=45 v=0
48720 On ch=2 n=60 v=34
48720 On ch=2 n=53 v=34
48959 On ch=2 n=60 v=0
48959 On ch=2 n=53 v=0
48960 On ch=2 n=65 v=34
48960 On ch=2 n=60 v=34
49199 On ch=2 n=65 v=0
49199 On ch=2 n=60 v=0
49200 On ch=2 n=44 v=34
49439 On ch=2 n=44 v=0
49440 On ch=2 n=60 v=34
49440 On ch=2 n=51 v=34
49679 On ch=2 n=60 v=0
49679 On ch=2 n=51 v=0
49680 On ch=2 n=63 v=34
49680 On ch=2 n=60 v=34
49680 On ch=2 n=56 v=34
49919 On ch=2 n=63 v=0
49919 On ch=2 n=60 v=0
49919 On ch=2 n=56 v=0
49920 On ch=2 n=32 v=34
50159 On ch=2 n=32 v=0
50160 On ch=2 n=59 v=34
50160 On ch=2 n=51 v=34
50399 On ch=2 n=59 v=0
50399 On ch=2 n=51 v=0
50400 On ch=2 n=63 v=34
50400 On ch=2 n=59 v=34
50400 On ch=2 n=56 v=34
50639 On ch=2 n=63 v=0
50639 On ch=2 n=59 v=0
50639 On ch=2 n=56 v=0
50640 On ch=2 n=39 v=34
50879 On ch=2 n=39 v=0
50880 On ch=2 n=63 v=34
50880 On ch=2 n=55 v=34
51119 On ch=2 n=63 v=0
51119 On ch=2 n=55 v=0
51120 On ch=2 n=67 v=34
51120 On ch=2 n=63 v=34
51120 On ch=2 n=58 v=34
51359 On ch=2 n=67 v=0
51359 On ch=2 n=63 v=0
51359 On ch=2 n=58 v=0
51360 On ch=2 n=51 v=34
51599 On ch=2 n=51 v=0
51600 On ch=2 n=63 v=34
51600 On ch=2 n=55 v=34
51839 On ch=2 n=63 v=0
51839 On ch=2 n=55 v=0
51840 On ch=2 n=67 v=34
51840 On ch=2 n=63 v=34
51840 On ch=2 n=58 v=34
52079 On ch=2 n=67 v=0
52079 On ch=2 n=63 v=0
52079 On ch=2 n=58 v=0
52080 On ch=2 n=40 v=68
52319 On ch=2 n=40 v=0
52320 On ch=2 n=61 v=68
52320 On ch=2 n=52 v=68
52559 On ch=2 n=61 v=0
52559 On ch=2 n=52 v=0
52560 On ch=2 n=67 v=68
52560 On ch=2 n=61 v=68
52560 On ch=2 n=58 v=68
52799 On ch=2 n=67 v=0
52799 On ch=2 n=61 v=0
52799 On ch=2 n=58 v=0
52800 On ch=2 n=40 v=68
53039 On ch=2 n=40 v=0
53040 On ch=2 n=60 v=68
53040 On ch=2 n=52 v=68
53279 On ch=2 n=60 v=0
53279 On ch=2 n=52 v=0
53280 On ch=2 n=67 v=68
53280 On ch=2 n=60 v=68
53280 On ch=2 n=58 v=68
53519 On ch=2 n=67 v=0
53519 On ch=2 n=60 v=0
53519 On ch=2 n=58 v=0
53520 On ch=2 n=41 v=68
53759 On ch=2 n=41 v=0
53760 On ch=2 n=63 v=68
53760 On ch=2 n=53 v=68
53999 On ch=2 n=63 v=0
53999 On ch=2 n=53 v=0
54000 On ch=2 n=69 v=68
54000 On ch=2 n=63 v=68
54000 On ch=2 n=60 v=68
54239 On ch=2 n=69 v=0
54239 On ch=2 n=63 v=0
54239 On ch=2 n=60 v=0
54240 On ch=2 n=43 v=68
54479 On ch=2 n=43 v=0
54480 On ch=2 n=62 v=68
54480 On ch=2 n=55 v=68
54719 On ch=2 n=62 v=0
54719 On ch=2 n=55 v=0
54720 On ch=2 n=70 v=68
54720 On ch=2 n=62 v=68
54720 On ch=2 n=58 v=68
54959 On ch=2 n=70 v=0
54959 On ch=2 n=62 v=0
54959 On ch=2 n=58 v=0
54960 On ch=2 n=36 v=68
55199 On ch=2 n=36 v=0
55200 On ch=2 n=63 v=68
55200 On ch=2 n=55 v=68
55439 On ch=2 n=63 v=0
55439 On ch=2 n=55 v=0
55440 On ch=2 n=67 v=68
55440 On ch=2 n=63 v=68
55440 On ch=2 n=60 v=68
55679 On ch=2 n=67 v=0
55679 On ch=2 n=63 v=0
55679 On ch=2 n=60 v=0
55680 On ch=2 n=41 v=68
55919 On ch=2 n=41 v=0
55920 On ch=2 n=63 v=68
55920 On ch=2 n=53 v=68
56159 On ch=2 n=63 v=0
56159 On ch=2 n=53 v=0
56160 On ch=2 n=65 v=68
56160 On ch=2 n=63 v=68
56160 On ch=2 n=60 v=68
56399 On ch=2 n=65 v=0
56399 On ch=2 n=63 v=0
56399 On ch=2 n=60 v=0
56400 On ch=2 n=62 v=68
56400 On ch=2 n=58 v=68
56639 On ch=2 n=62 v=0
56639 On ch=2 n=58 v=0
56640 On ch=2 n=63 v=68
56640 On ch=2 n=57 v=68
56879 On ch=2 n=63 v=0
56879 On ch=2 n=57 v=0
56880 On ch=2 n=56 v=68
57119 On ch=2 n=56 v=0
57120 On ch=2 n=55 v=68
57359 On ch=2 n=55 v=0
57360 On ch=2 n=63 v=68
57360 On ch=2 n=60 v=68
57360 On ch=2 n=53 v=68
57599 On ch=2 n=63 v=0
57599 On ch=2 n=60 v=0
57599 On ch=2 n=53 v=0
57600 On ch=2 n=65 v=68
57600 On ch=2 n=58 v=68
57839 On ch=2 n=65 v=0
57839 On ch=2 n=58 v=0
57840 On ch=2 n=39 v=34
58079 On ch=2 n=39 v=0
58080 On ch=2 n=63 v=34
58080 On ch=2 n=55 v=34
58319 On ch=2 n=63 v=0
58319 On ch=2 n=55 v=0
58320 On ch=2 n=67 v=34
58320 On ch=2 n=63 v=34
58320 On ch=2 n=58 v=34
58559 On ch=2 n=67 v=0
58559 On ch=2 n=63 v=0
58559 On ch=2 n=58 v=0
58560 On ch=2 n=51 v=34
58799 On ch=2 n=51 v=0
58800 On ch=2 n=62 v=34
58800 On ch=2 n=56 v=34
59039 On ch=2 n=62 v=0
59039 On ch=2 n=56 v=0
59040 On ch=2 n=68 v=34
59040 On ch=2 n=62 v=34
59040 On ch=2 n=58 v=34
59279 On ch=2 n=68 v=0
59279 On ch=2 n=62 v=0
59279 On ch=2 n=58 v=0
59280 On ch=2 n=51 v=34
59519 On ch=2 n=51 v=0
59520 On ch=2 n=63 v=34
59520 On ch=2 n=55 v=34
59759 On ch=2 n=63 v=0
59759 On ch=2 n=55 v=0
59760 On ch=2 n=67 v=34
59760 On ch=2 n=63 v=34
59760 On ch=2 n=58 v=34
59999 On ch=2 n=67 v=0
59999 On ch=2 n=63 v=0
59999 On ch=2 n=58 v=0
60000 On ch=2 n=50 v=34
60239 On ch=2 n=50 v=0
60240 On ch=2 n=63 v=34
60240 On ch=2 n=55 v=34
60479 On ch=2 n=63 v=0
60479 On ch=2 n=55 v=0
60480 On ch=2 n=67 v=34
60480 On ch=2 n=63 v=34
60480 On ch=2 n=58 v=34
60719 On ch=2 n=67 v=0
60719 On ch=2 n=63 v=0
60719 On ch=2 n=58 v=0
60720 On ch=2 n=48 v=34
60959 On ch=2 n=48 v=0
60960 On ch=2 n=64 v=34
60960 On ch=2 n=55 v=34
61199 On ch=2 n=64 v=0
61199 On ch=2 n=55 v=0
61200 On ch=2 n=67 v=34
61200 On ch=2 n=64 v=34
61200 On ch=2 n=58 v=34
61439 On ch=2 n=67 v=0
61439 On ch=2 n=64 v=0
61439 On ch=2 n=58 v=0
61440 On ch=2 n=48 v=34
61679 On ch=2 n=48 v=0
61680 On ch=2 n=64 v=34
61680 On ch=2 n=55 v=34
61919 On ch=2 n=64 v=0
61919 On ch=2 n=55 v=0
61920 On ch=2 n=70 v=34
61920 On ch=2 n=64 v=34
61920 On ch=2 n=60 v=34
62159 On ch=2 n=70 v=0
62159 On ch=2 n=64 v=0
62159 On ch=2 n=60 v=0
62160 On ch=2 n=41 v=34
62399 On ch=2 n=41 v=0
62400 On ch=2 n=61 v=34
62400 On ch=2 n=58 v=34
62400 On ch=2 n=53 v=34
62639 On ch=2 n=61 v=0
62639 On ch=2 n=58 v=0
62639 On ch=2 n=53 v=0
62640 On ch=2 n=64 v=34
62640 On ch=2 n=61 v=34
62640 On ch=2 n=58 v=34
62879 On ch=2 n=64 v=0
62879 On ch=2 n=61 v=0
62879 On ch=2 n=58 v=0
62880 On ch=2 n=41 v=34
63119 On ch=2 n=41 v=0
63120 On ch=2 n=60 v=34
63120 On ch=2 n=53 v=34
63359 On ch=2 n=60 v=0
63359 On ch=2 n=53 v=0
63360 On ch=2 n=65 v=34
63360 On ch=2 n=60 v=34
63360 On ch=2 n=56 v=34
63599 On ch=2 n=65 v=0
63599 On ch=2 n=60 v=0
63599 On ch=2 n=56 v=0
63600 On ch=2 n=46 v=34
63839 On ch=2 n=46 v=0
63840 On ch=2 n=62 v=34
63840 On ch=2 n=53 v=34
64079 On ch=2 n=62 v=0
64079 On ch=2 n=53 v=0
64080 On ch=2 n=68 v=34
64080 On ch=2 n=62 v=34
64080 On ch=2 n=58 v=34
64319 On ch=2 n=68 v=0
64319 On ch=2 n=62 v=0
64319 On ch=2 n=58 v=0
64320 On ch=2 n=47 v=34
64559 On ch=2 n=47 v=0
64560 On ch=2 n=65 v=34
64560 On ch=2 n=55 v=34
64799 On ch=2 n=65 v=0
64799 On ch=2 n=55 v=0
64800 On ch=2 n=67 v=34
64800 On ch=2 n=65 v=34
64800 On ch=2 n=62 v=34
65039 On ch=2 n=67 v=0
65039 On ch=2 n=65 v=0
65039 On ch=2 n=62 v=0
65040 On ch=2 n=48 v=34
65279 On ch=2 n=48 v=0
65280 On ch=2 n=63 v=34
65280 On ch=2 n=55 v=34
65519 On ch=2 n=63 v=0
65519 On ch=2 n=55 v=0
65520 On ch=2 n=67 v=34
65520 On ch=2 n=63 v=34
65520 On ch=2 n=60 v=34
65759 On ch=2 n=67 v=0
65759 On ch=2 n=63 v=0
65759 On ch=2 n=60 v=0
65760 On ch=2 n=45 v=34
65999 On ch=2 n=45 v=0
66000 On ch=2 n=63 v=34
66000 On ch=2 n=54 v=34
66239 On ch=2 n=63 v=0
66239 On ch=2 n=54 v=0
66240 On ch=2 n=66 v=34
66240 On ch=2 n=63 v=34
66240 On ch=2 n=60 v=34
66479 On ch=2 n=66 v=0
66479 On ch=2 n=63 v=0
66479 On ch=2 n=60 v=0
66480 On ch=2 n=46 v=34
66719 On ch=2 n=46 v=0
66720 On ch=2 n=63 v=34
66720 On ch=2 n=53 v=34
66959 On ch=2 n=63 v=0
66959 On ch=2 n=53 v=0
66960 On ch=2 n=68 v=34
66960 On ch=2 n=63 v=34
66960 On ch=2 n=58 v=34
67199 On ch=2 n=68 v=0
67199 On ch=2 n=63 v=0
67199 On ch=2 n=58 v=0
67200 On ch=2 n=34 v=34
67439 On ch=2 n=34 v=0
67440 On ch=2 n=62 v=34
67440 On ch=2 n=53 v=34
67679 On ch=2 n=62 v=0
67679 On ch=2 n=53 v=0
67680 On ch=2 n=68 v=34
67680 On ch=2 n=62 v=34
67680 On ch=2 n=58 v=34
67919 On ch=2 n=68 v=0
67919 On ch=2 n=62 v=0
67919 On ch=2 n=58 v=0
67920 On ch=2 n=39 v=34
68159 On ch=2 n=39 v=0
68160 On ch=2 n=63 v=34
68160 On ch=2 n=55 v=34
68399 On ch=2 n=63 v=0
68399 On ch=2 n=55 v=0
68400 On ch=2 n=67 v=34
68400 On ch=2 n=63 v=34
68400 On ch=2 n=58 v=34
68639 On ch=2 n=67 v=0
68639 On ch=2 n=63 v=0
68639 On ch=2 n=58 v=0
68640 On ch=2 n=51 v=34
68879 On ch=2 n=51 v=0
68880 On ch=2 n=63 v=34
68880 On ch=2 n=55 v=34
69119 On ch=2 n=63 v=0
69119 On ch=2 n=55 v=0
69120 On ch=2 n=67 v=34
69120 On ch=2 n=63 v=34
69120 On ch=2 n=58 v=34
69359 On ch=2 n=67 v=0
69359 On ch=2 n=63 v=0
69359 On ch=2 n=58 v=0
69360 On ch=2 n=39 v=34
69599 On ch=2 n=39 v=0
69600 On ch=2 n=63 v=34
69600 On ch=2 n=59 v=34
69600 On ch=2 n=56 v=34
69839 On ch=2 n=63 v=0
69839 On ch=2 n=59 v=0
69839 On ch=2 n=56 v=0
69840 On ch=2 n=68 v=34
69840 On ch=2 n=63 v=34
69840 On ch=2 n=59 v=34
70079 On ch=2 n=68 v=0
70079 On ch=2 n=63 v=0
70079 On ch=2 n=59 v=0
70080 On ch=2 n=51 v=34
70319 On ch=2 n=51 v=0
70320 On ch=2 n=63 v=34
70320 On ch=2 n=59 v=34
70320 On ch=2 n=56 v=34
70559 On ch=2 n=63 v=0
70559 On ch=2 n=59 v=0
70559 On ch=2 n=56 v=0
70560 On ch=2 n=68 v=34
70560 On ch=2 n=63 v=34
70560 On ch=2 n=59 v=34
70799 On ch=2 n=68 v=0
70799 On ch=2 n=63 v=0
70799 On ch=2 n=59 v=0
70800 On ch=2 n=39 v=34
71039 On ch=2 n=39 v=0
71040 On ch=2 n=63 v=34
71040 On ch=2 n=55 v=34
71279 On ch=2 n=63 v=0
71279 On ch=2 n=55 v=0
71280 On ch=2 n=67 v=34
71280 On ch=2 n=63 v=34
71280 On ch=2 n=58 v=34
71519 On ch=2 n=67 v=0
71519 On ch=2 n=63 v=0
71519 On ch=2 n=58 v=0
71520 On ch=2 n=51 v=34
71759 On ch=2 n=51 v=0
71760 On ch=2 n=63 v=34
71760 On ch=2 n=55 v=34
71999 On ch=2 n=63 v=0
71999 On ch=2 n=55 v=0
72000 On ch=2 n=67 v=34
72000 On ch=2 n=63 v=34
72000 On ch=2 n=58 v=34
72239 On ch=2 n=67 v=0
72239 On ch=2 n=63 v=0
72239 On ch=2 n=58 v=0
72240 On ch=2 n=39 v=34
72479 On ch=2 n=39 v=0
72480 On ch=2 n=63 v=34
72480 On ch=2 n=59 v=34
72480 On ch=2 n=56 v=34
72719 On ch=2 n=63 v=0
72719 On ch=2 n=59 v=0
72719 On ch=2 n=56 v=0
72720 On ch=2 n=68 v=34
72720 On ch=2 n=63 v=34
72720 On ch=2 n=59 v=34
72959 On ch=2 n=68 v=0
72959 On ch=2 n=63 v=0
72959 On ch=2 n=59 v=0
72960 On ch=2 n=51 v=34
73199 On ch=2 n=51 v=0
73200 On ch=2 n=63 v=34
73200 On ch=2 n=59 v=34
73200 On ch=2 n=56 v=34
73439 On ch=2 n=63 v=0
73439 On ch=2 n=59 v=0
73439 On ch=2 n=56 v=0
73440 On ch=2 n=68 v=34
73440 On ch=2 n=63 v=34
73440 On ch=2 n=59 v=34
73679 On ch=2 n=68 v=0
73679 On ch=2 n=63 v=0
73679 On ch=2 n=59 v=0
73680 On ch=2 n=39 v=34
73919 On ch=2 n=39 v=0
73920 On ch=2 n=63 v=34
73920 On ch=2 n=55 v=34
74159 On ch=2 n=63 v=0
74159 On ch=2 n=55 v=0
74160 On ch=2 n=67 v=34
74160 On ch=2 n=63 v=34
74160 On ch=2 n=58 v=34
74399 On ch=2 n=67 v=0
74399 On ch=2 n=63 v=0
74399 On ch=2 n=58 v=0
74400 On ch=2 n=51 v=34
74639 On ch=2 n=51 v=0
74640 On ch=2 n=63 v=34
74640 On ch=2 n=55 v=34
74879 On ch=2 n=63 v=0
74879 On ch=2 n=55 v=0
74880 On ch=2 n=67 v=34
74880 On ch=2 n=63 v=34
74880 On ch=2 n=58 v=34
75119 On ch=2 n=67 v=0
75119 On ch=2 n=63 v=0
75119 On ch=2 n=58 v=0
75120 On ch=2 n=51 v=23
75359 On ch=2 n=51 v=0
75360 On ch=2 n=62 v=23
75360 On ch=2 n=53 v=23
75599 On ch=2 n=62 v=0
75599 On ch=2 n=53 v=0
75600 On ch=2 n=68 v=23
75600 On ch=2 n=58 v=23
75839 On ch=2 n=68 v=0
75839 On ch=2 n=58 v=0
75840 On ch=2 n=51 v=23
76079 On ch=2 n=51 v=0
76080 On ch=2 n=62 v=23
76080 On ch=2 n=53 v=23
76319 On ch=2 n=62 v=0
76319 On ch=2 n=53 v=0
76320 On ch=2 n=68 v=23
76320 On ch=2 n=58 v=23
76559 On ch=2 n=68 v=0
76559 On ch=2 n=58 v=0
76560 On ch=2 n=51 v=23
76799 On ch=2 n=51 v=0
76800 On ch=2 n=63 v=23
76800 On ch=2 n=55 v=23
77039 On ch=2 n=63 v=0
77039 On ch=2 n=55 v=0
77040 On ch=2 n=67 v=23
77040 On ch=2 n=58 v=23
77279 On ch=2 n=67 v=0
77279 On ch=2 n=58 v=0
77280 On ch=2 n=45 v=23
77519 On ch=2 n=45 v=0
77520 On ch=2 n=63 v=23
77520 On ch=2 n=53 v=23
77759 On ch=2 n=63 v=0
77759 On ch=2 n=53 v=0
77760 On ch=2 n=65 v=23
77760 On ch=2 n=63 v=23
77760 On ch=2 n=60 v=23
77999 On ch=2 n=65 v=0
77999 On ch=2 n=63 v=0
77999 On ch=2 n=60 v=0
78000 On ch=2 n=46 v=23
78239 On ch=2 n=46 v=0
78240 On ch=2 n=63 v=23
78240 On ch=2 n=53 v=23
78479 On ch=2 n=63 v=0
78479 On ch=2 n=53 v=0
78480 On ch=2 n=68 v=23
78480 On ch=2 n=63 v=23
78480 On ch=2 n=58 v=23
78719 On ch=2 n=68 v=0
78719 On ch=2 n=63 v=0
78719 On ch=2 n=58 v=0
78720 On ch=2 n=34 v=23
78959 On ch=2 n=34 v=0
78960 On ch=2 n=62 v=23
78960 On ch=2 n=53 v=23
79199 On ch=2 n=62 v=0
79199 On ch=2 n=53 v=0
79200 On ch=2 n=68 v=23
79200 On ch=2 n=62 v=23
79200 On ch=2 n=58 v=23
79439 On ch=2 n=68 v=0
79439 On ch=2 n=62 v=0
79439 On ch=2 n=58 v=0
79440 On ch=2 n=39 v=23
79679 On ch=2 n=39 v=0
79680 On ch=2 n=63 v=23
79680 On ch=2 n=55 v=23
79919 On ch=2 n=63 v=0
79919 On ch=2 n=55 v=0
79920 On ch=2 n=67 v=23
79920 On ch=2 n=63 v=23
79920 On ch=2 n=58 v=23
80159 On ch=2 n=67 v=0
80159 On ch=2 n=63 v=0
80159 On ch=2 n=58 v=0
80160 On ch=2 n=51 v=23
80399 On ch=2 n=51 v=0
80400 On ch=2 n=63 v=23
80400 On ch=2 n=55 v=23
80639 On ch=2 n=63 v=0
80639 On ch=2 n=55 v=0
80640 On ch=2 n=67 v=23
80640 On ch=2 n=63 v=23
80640 On ch=2 n=58 v=23
80879 On ch=2 n=67 v=0
80879 On ch=2 n=63 v=0
80879 On ch=2 n=58 v=0
80880 On ch=2 n=32 v=34
81119 On ch=2 n=32 v=0
81120 On ch=2 n=59 v=34
81120 On ch=2 n=56 v=34
81120 On ch=2 n=51 v=34
81359 On ch=2 n=59 v=0
81359 On ch=2 n=56 v=0
81359 On ch=2 n=51 v=0
81360 On ch=2 n=63 v=34
81360 On ch=2 n=59 v=34
81360 On ch=2 n=56 v=34
81599 On ch=2 n=63 v=0
81599 On ch=2 n=59 v=0
81599 On ch=2 n=56 v=0
81600 On ch=2 n=68 v=34
81600 On ch=2 n=63 v=34
81600 On ch=2 n=59 v=34
81839 On ch=2 n=68 v=0
81839 On ch=2 n=63 v=0
81839 On ch=2 n=59 v=0
81840 On ch=2 n=63 v=34
81840 On ch=2 n=59 v=34
81840 On ch=2 n=56 v=34
82079 On ch=2 n=63 v=0
82079 On ch=2 n=59 v=0
82079 On ch=2 n=56 v=0
82080 On ch=2 n=59 v=34
82080 On ch=2 n=56 v=34
82080 On ch=2 n=51 v=34
82319 On ch=2 n=59 v=0
82319 On ch=2 n=56 v=0
82319 On ch=2 n=51 v=0
82320 On ch=2 n=39 v=34
82559 On ch=2 n=39 v=0
82560 On ch=2 n=63 v=34
82560 On ch=2 n=55 v=34
82799 On ch=2 n=63 v=0
82799 On ch=2 n=55 v=0
82800 On ch=2 n=67 v=34
82800 On ch=2 n=63 v=34
82800 On ch=2 n=58 v=34
83039 On ch=2 n=67 v=0
83039 On ch=2 n=63 v=0
83039 On ch=2 n=58 v=0
83040 On ch=2 n=51 v=34
83279 On ch=2 n=51 v=0
83280 On ch=2 n=63 v=34
83280 On ch=2 n=55 v=34
83519 On ch=2 n=63 v=0
83519 On ch=2 n=55 v=0
83520 On ch=2 n=67 v=34
83520 On ch=2 n=63 v=34
83520 On ch=2 n=58 v=34
83759 On ch=2 n=67 v=0
83759 On ch=2 n=63 v=0
83759 On ch=2 n=58 v=0
83760 On ch=2 n=32 v=68
83999 On ch=2 n=32 v=0
84000 On ch=2 n=59 v=68
84000 On ch=2 n=56 v=68
84000 On ch=2 n=51 v=68
84239 On ch=2 n=59 v=0
84239 On ch=2 n=56 v=0
84239 On ch=2 n=51 v=0
84240 On ch=2 n=63 v=68
84240 On ch=2 n=59 v=68
84240 On ch=2 n=56 v=68
84479 On ch=2 n=63 v=0
84479 On ch=2 n=59 v=0
84479 On ch=2 n=56 v=0
84480 On ch=2 n=59 v=68
84480 On ch=2 n=56 v=68
84480 On ch=2 n=51 v=68
84719 On ch=2 n=59 v=0
84719 On ch=2 n=56 v=0
84719 On ch=2 n=51 v=0
84720 On ch=2 n=63 v=68
84720 On ch=2 n=59 v=68
84720 On ch=2 n=56 v=68
84959 On ch=2 n=63 v=0
84959 On ch=2 n=59 v=0
84959 On ch=2 n=56 v=0
84960 On ch=2 n=59 v=68
84960 On ch=2 n=56 v=68
84960 On ch=2 n=51 v=68
85199 On ch=2 n=59 v=0
85199 On ch=2 n=56 v=0
85199 On ch=2 n=51 v=0
85200 On ch=2 n=39 v=68
85439 On ch=2 n=39 v=0
85440 On ch=2 n=63 v=68
85440 On ch=2 n=55 v=68
85679 On ch=2 n=63 v=0
85679 On ch=2 n=55 v=0
85680 On ch=2 n=67 v=68
85680 On ch=2 n=63 v=68
85680 On ch=2 n=58 v=68
85919 On ch=2 n=67 v=0
85919 On ch=2 n=63 v=0
85919 On ch=2 n=58 v=0
85920 On ch=2 n=45 v=68
86159 On ch=2 n=45 v=0
86160 On ch=2 n=63 v=68
86160 On ch=2 n=53 v=68
86399 On ch=2 n=63 v=0
86399 On ch=2 n=53 v=0
86400 On ch=2 n=65 v=68
86400 On ch=2 n=63 v=68
86400 On ch=2 n=60 v=68
86639 On ch=2 n=65 v=0
86639 On ch=2 n=63 v=0
86639 On ch=2 n=60 v=0
86640 On ch=2 n=46 v=68
86879 On ch=2 n=46 v=0
86880 On ch=2 n=63 v=68
86880 On ch=2 n=58 v=68
86880 On ch=2 n=53 v=68
87119 On ch=2 n=63 v=0
87119 On ch=2 n=58 v=0
87119 On ch=2 n=53 v=0
87120 On ch=2 n=68 v=68
87120 On ch=2 n=63 v=68
87120 On ch=2 n=58 v=68
87359 On ch=2 n=68 v=0
87359 On ch=2 n=63 v=0
87359 On ch=2 n=58 v=0
87360 On ch=2 n=47 v=68
87599 On ch=2 n=47 v=0
87600 On ch=2 n=65 v=68
87600 On ch=2 n=55 v=68
87839 On ch=2 n=65 v=0
87839 On ch=2 n=55 v=0
87840 On ch=2 n=67 v=68
87840 On ch=2 n=65 v=68
87840 On ch=2 n=62 v=68
88079 On ch=2 n=67 v=0
88079 On ch=2 n=65 v=0
88079 On ch=2 n=62 v=0
88080 On ch=2 n=48 v=68
88319 On ch=2 n=48 v=0
88320 On ch=2 n=63 v=68
88320 On ch=2 n=55 v=68
88559 On ch=2 n=63 v=0
88559 On ch=2 n=55 v=0
88560 On ch=2 n=67 v=68
88560 On ch=2 n=60 v=68
88799 On ch=2 n=67 v=0
88799 On ch=2 n=60 v=0
88800 On ch=2 n=45 v=68
89039 On ch=2 n=45 v=0
89040 On ch=2 n=63 v=68
89040 On ch=2 n=60 v=68
89040 On ch=2 n=53 v=68
89279 On ch=2 n=63 v=0
89279 On ch=2 n=60 v=0
89279 On ch=2 n=53 v=0
89280 On ch=2 n=65 v=68
89280 On ch=2 n=63 v=68
89280 On ch=2 n=60 v=68
89519 On ch=2 n=65 v=0
89519 On ch=2 n=63 v=0
89519 On ch=2 n=60 v=0
89520 On ch=2 n=34 v=79
89759 On ch=2 n=34 v=0
89760 On ch=2 n=46 v=79
89999 On ch=2 n=46 v=0
90000 On ch=2 n=53 v=79
90239 On ch=2 n=53 v=0
90240 On ch=2 n=56 v=79
90479 On ch=2 n=56 v=0
90480 On ch=2 n=62 v=79
90719 On ch=2 n=62 v=0
90720 On ch=2 n=58 v=79
90959 On ch=2 n=58 v=0
90960 On ch=2 n=65 v=79
91199 On ch=2 n=65 v=0
91200 On ch=2 n=68 v=79
91439 On ch=2 n=68 v=0
91440 On ch=2 n=74 v=79
92879 On ch=2 n=74 v=0
100560 On ch=2 n=39 v=23
100799 On ch=2 n=39 v=0
100800 On ch=2 n=58 v=23
101039 On ch=2 n=58 v=0
101040 On ch=2 n=46 v=23
101279 On ch=2 n=46 v=0
101280 On ch=2 n=51 v=23
101519 On ch=2 n=51 v=0
101520 On ch=2 n=58 v=23
101759 On ch=2 n=58 v=0
101760 On ch=2 n=46 v=23
101999 On ch=2 n=46 v=0
102000 On ch=2 n=39 v=23
102239 On ch=2 n=39 v=0
102240 On ch=2 n=58 v=23
102479 On ch=2 n=58 v=0
102480 On ch=2 n=46 v=23
102719 On ch=2 n=46 v=0
102720 On ch=2 n=51 v=23
102959 On ch=2 n=51 v=0
103200 On ch=2 n=46 v=23
103439 On ch=2 n=46 v=0
103440 On ch=2 n=58 v=80
103440 On ch=2 n=51 v=11
104159 On ch=2 n=58 v=0
104159 On ch=2 n=51 v=0
104160 On ch=2 n=70 v=11
104160 On ch=2 n=63 v=11
104879 On ch=2 n=70 v=0
104879 On ch=2 n=63 v=0
104880 On ch=2 n=46 v=11
104880 On ch=2 n=39 v=11
106319 On ch=2 n=46 v=0
106319 On ch=2 n=39 v=0
106320 Meta TrkEnd
TrkEnd